<svg id="search" xmlns="http://www.w3.org/2000/svg" xmlns:xlink="http://www.w3.org/1999/xlink" viewBox="0 0 1277.49 828.2"><defs><style>.cls-1,.cls-10,.cls-13,.cls-14,.cls-15,.cls-16,.cls-19,.cls-20,.cls-23,.cls-24{fill:none;}.cls-2{fill:#fcedeb;opacity:0.66;}.cls-25,.cls-3{fill:#fff;}.cls-4{fill:#ddc6c3;opacity:0.32;}.cls-5{clip-path:url(#clip-path);}.cls-17,.cls-18,.cls-6{fill:#c97253;}.cls-21,.cls-22,.cls-7{fill:#e19271;}.cls-8{fill:#aac9ce;stroke:#fff;}.cls-10,.cls-11,.cls-12,.cls-13,.cls-14,.cls-15,.cls-16,.cls-17,.cls-18,.cls-19,.cls-20,.cls-21,.cls-22,.cls-23,.cls-24,.cls-8{stroke-miterlimit:10;}.cls-9{fill:#f4b3a2;}.cls-10,.cls-14,.cls-21{stroke:#f4b3a2;}.cls-10,.cls-11,.cls-16{stroke-width:3px;}.cls-11{fill:#9bc1b9;}.cls-11,.cls-12{stroke:#aac9ce;}.cls-12{fill:#5b897e;stroke-width:0.75px;}.cls-13,.cls-15,.cls-16{stroke:#343947;}.cls-13{stroke-width:4px;}.cls-14,.cls-21,.cls-22,.cls-24{stroke-width:2px;}.cls-15{stroke-width:6px;}.cls-17,.cls-19,.cls-22,.cls-24{stroke:#e19271;}.cls-18,.cls-20{stroke:#c97253;}.cls-18{stroke-width:5px;}.cls-23{stroke:#ddc6c3;}.cls-25{opacity:0.43;}</style><clipPath id="clip-path"><rect class="cls-1" x="1.95" y="2.67" width="1275.49" height="826.2"/></clipPath></defs><title>background3</title><rect class="cls-2" x="1.26" y="710.39" width="1276.87" height="117.71"/><rect class="cls-3" x="2.64" y="1.89" width="1274.12" height="824.43"/><path class="cls-2" d="M1276.75,548.33h-173v-68H1004.1v54.89l-22.65-2.62V347.06L854.61,366.91V527.42H791.19l-13.59-18.3V438.54l-18.12,9.15V517H718.7v31.37H696.05l-34-49.76H634.9l-11.33-35H412.92V317.13H372.15V498.57h-77l-11.33,49.76-77,26.14-49.87-69.63-4.49-6.27c-27.18,55-31.71,75.9-31.71,75.9H102V460.76L-1.33,272.18,2.28,507.46,2,828.87H2l755.88.38,519.61-.38Z"/><path class="cls-4" d="M-1.33,639.8l116.11,11v-68h99.66v54.89l22.65-2.61,126.85-5.23h63.42L441,611.61V541l18.12,9.14v69.27h40.77v31.37h22.65l34-49.76h27.18l11.32-35H805.62V419.62h40.77V601.06h77l11.32,49.76,77,26.14,49.88-69.63,4.49-6.27c27.18,55,31.71,75.9,31.71,75.9h97.4l2.38-82,80.53-176.12-4,152.21,3.3,257.77H2Z"/><g class="cls-5"><path class="cls-6" d="M956.7,782.5c-.26-.27-2.06,0-2.06,0l.69,20.56,2.83.05Z"/><path class="cls-6" d="M954.64,802a12.32,12.32,0,0,0-2.92,0l.11,11,2.81-.1Z"/><path class="cls-6" d="M1006.79,804.61a8.81,8.81,0,0,1,2.47,0l.1,9.77-2.57.24Z"/><path class="cls-6" d="M1002,782.5c.27-.27,2.17,0,2.17,0l-.72,20.56-3,.05Z"/><path class="cls-7" d="M945.88,783.54c-.36,1.53,2.08,5,2.11,6.49,4.59.61,60.61,2.23,63.8.36,3.21-3.24,2.52-5.43,2.88-6.52C1010.24,783.81,942.32,783.58,945.88,783.54Z"/><path class="cls-7" d="M949,791c.35,1.81,2.72,4.82,2.72,5.91,2.12.72,56.08,2.17,58.2,0a8.91,8.91,0,0,0,1.49-5.11C1007.05,793,956.53,792.25,949,791Z"/><path class="cls-7" d="M940.47,805.78c4.76-.08,70.09,1.65,78.82,1.65a66.36,66.36,0,0,1-10.18-5.9c-4.23.66-53.89-.82-57.46-.91C949.55,802,940.47,805.78,940.47,805.78Z"/><path class="cls-6" d="M906.44,782.68c.25-.27,2.06,0,2.06,0l-.17,20.89-2.83.13Z"/><path class="cls-6" d="M908.72,802.49a12.32,12.32,0,0,1,2.92,0l-.11,11-2.81-.1Z"/><path class="cls-6" d="M856.57,805.11a8.81,8.81,0,0,0-2.47,0l-.1,9.77,2.57.24Z"/><path class="cls-6" d="M861.33,782.67c-.27-.27-2.17,0-2.17,0l.72,20.88,3,.06Z"/><path class="cls-7" d="M917.48,784c.36,1.54-2.08,5-2.12,6.5-4.58.61-60.6,2.23-63.79.36-3.21-3.24-2.52-5.43-2.88-6.52C853.12,784.31,921,784.08,917.48,784Z"/><path class="cls-7" d="M914.36,791.45c-.35,1.8-2.72,4.82-2.72,5.91-2.12.72-56.08,2.16-58.2,0a8.91,8.91,0,0,1-1.49-5.11C856.31,793.47,906.83,792.75,914.36,791.45Z"/><path class="cls-7" d="M922.89,806.28c-4.76-.08-70.09,1.65-78.82,1.65a66.87,66.87,0,0,0,10.18-5.9c4.23.66,53.89-.82,57.46-.91C913.81,802.47,922.89,806.28,922.89,806.28Z"/><path class="cls-8" d="M297.41,338.6c-10.75,4.21-.22,15,5.34,10.95,2.58-1.91,14.85-11.54,8.66-27.74-7.21-18.87-31.25-21.17-45.06-12.28s-12,30-4.64,26.2,7.86-13-6.6-20.14a43.43,43.43,0,0,0-49.37,7.34c-12.53,11.77-14.58,37.82-6.16,45.54s22.82,6.52,17.3-.75-28.94-8-34.71-2.17c-6.56,6.64-7.62,18.22-2.53,28.13,5.59,10.88,15.18,10.32,20.07,3.17s.35-11.86-4.57-10.86c-10.42,2.12-10.36,19.6-6.44,24.54,8.1-.87,169.9,1.29,169.9,1.29s5.29-24.49-11.81-32.41-32.16-9-31.21-.38,27.8-6,22.5-28.34C334.17,334.24,317.29,330.8,297.41,338.6Z"/><path class="cls-8" d="M1280,336.35c-7.76,3-.16,10.86,3.85,7.91,1.87-1.37,10.73-8.33,6.26-20-5.21-13.63-22.56-15.29-32.54-8.87s-8.65,21.65-3.35,18.92,5.68-9.37-4.76-14.54a31.31,31.31,0,0,0-35.64,5.3c-9,8.49-10.53,27.3-4.45,32.87s16.47,4.71,12.49-.54-20.89-5.77-25.06-1.56c-4.74,4.79-5.51,13.15-1.83,20.3,4,7.86,11,7.45,14.49,2.29s.26-8.56-3.29-7.84c-7.53,1.53-7.49,14.15-4.66,17.72,5.85-.63,122.67.93,122.67.93s3.82-17.68-8.53-23.4-23.22-6.5-22.53-.27,20.07-4.36,16.25-20.46C1306.56,333.21,1294.37,330.73,1280,336.35Z"/><path class="cls-8" d="M473,124.74c-5.41,3.89-2.66,8,1.31,6.07,7.89-3.77,4.74-13.37-3.53-17.5-12.37-6.19-22.71-2.78-33.74,1-6.88,2.36-12.69,12.53-6.6,13.51,7.64,1.24.41-16.68-13.07-20.17-15.36-4-31.7.67-41.07,6.34S359.18,134,366,139.58c2.24,1.86,8-.91,2.71-3.85s-10-5.52-16.45-3.49-9.72,10.31-6.7,14.91c3.34,5.1,8.22,4,13.64,1.58,2.85-1.26.26-4.58-2-3.29-4.17,2.34-5.95,5.71-5,9.48-.64.79,173.2,4.32,173.2,4.32s3.85-5.91-8.74-15.1c-14-10.22-25.33-7.59-21.57-.64,2.06,3.81,16.58,4.38,9.52-13.64C501,120.66,487.74,114.11,473,124.74Z"/><path class="cls-8" d="M1091,139.56c-6,4.32-2.94,8.83,1.44,6.73,8.74-4.17,5.25-14.8-3.9-19.38-13.69-6.84-25.14-3.07-37.34,1.13-7.62,2.61-14.05,13.86-7.3,15,8.45,1.37.45-18.46-14.47-22.33-17-4.39-35.09.74-45.46,7S965,149.79,972.5,156c2.48,2.05,8.84-1,3-4.27s-11.07-6.11-18.21-3.86-10.75,11.41-7.41,16.5c3.7,5.65,9.09,4.42,15.09,1.76,3.16-1.41.3-5.08-2.23-3.66-4.61,2.6-6.58,6.33-5.49,10.5-.7.88,191.7,4.79,191.7,4.79s4.25-6.55-9.68-16.72c-15.5-11.32-28-8.39-23.87-.71,2.28,4.22,18.35,4.85,10.53-15.09C1121.94,135.06,1107.28,127.8,1091,139.56Z"/><path class="cls-8" d="M107.74,199.2c-6.25,4.51-3.07,9.22,1.51,7,9.11-4.36,5.48-15.46-4.07-20.23-14.3-7.15-26.25-3.21-39,1.17-8,2.73-14.66,14.48-7.62,15.61,8.83,1.43.48-19.28-15.1-23.31-17.74-4.59-36.63.77-47.46,7.33s-19.76,23.08-11.94,29.56c2.59,2.14,9.24-1.06,3.14-4.45s-11.56-6.39-19-4S-43,219.79-39.55,225.1c3.86,5.9,9.49,4.62,15.76,1.83,3.3-1.46.3-5.29-2.33-3.81-4.82,2.71-6.88,6.6-5.74,11-.73.92,200.14,5,200.14,5s4.44-6.84-10.1-17.46c-16.18-11.81-29.27-8.76-24.93-.73,2.39,4.39,19.16,5.06,11-15.76C140.08,194.5,124.78,186.93,107.74,199.2Z"/><path class="cls-6" d="M801.35,666c.24.1,30,20.83,33,25.32-6.32,3.08-20.82,3.51-21.81,3.52S801.35,666,801.35,666Z"/><path class="cls-6" d="M785.93,636.64c3,7.63,29.47,24.38,37.24,34.49a59.09,59.09,0,0,1-16.62,4.56C805.56,675.69,785.93,636.64,785.93,636.64Z"/><path class="cls-6" d="M777.88,624s28.24,20.52,33.68,26.79c-6.75,2.68-15.44,1.37-17.38,1.43C792.67,652.25,780.87,629.13,777.88,624Z"/><path class="cls-6" d="M764.8,606.3s24,14.41,32.65,23.71c-6.64,3.6-14.09,3-15.09,3S764.8,606.3,764.8,606.3Z"/><path class="cls-6" d="M745.92,584.5s26.64,14,37.15,24.3a43.49,43.49,0,0,1-14.31,4.86C767.76,613.66,745.92,584.5,745.92,584.5Z"/><path class="cls-6" d="M686.92,668.46c-.25.11-30,20.84-33,25.33,6.33,3.08,20.82,3.51,21.82,3.51S686.92,668.46,686.92,668.46Z"/><path class="cls-6" d="M702.34,639.07c-3,7.63-29.47,24.38-37.25,34.49a59.26,59.26,0,0,0,16.62,4.56C682.71,678.12,702.34,639.07,702.34,639.07Z"/><path class="cls-6" d="M710.38,626.42s-28.23,20.52-33.67,26.79c6.74,2.67,15.43,1.37,17.38,1.43C695.6,654.68,707.4,631.56,710.38,626.42Z"/><path class="cls-6" d="M723.46,608.72s-24,14.42-32.64,23.72c6.63,3.6,14.09,3,15.08,3S723.46,608.72,723.46,608.72Z"/><path class="cls-6" d="M742.35,586.93s-26.64,13.94-37.16,24.3a43.59,43.59,0,0,0,14.32,4.86C720.51,616.09,742.35,586.93,742.35,586.93Z"/><path class="cls-9" d="M667.6,698.68c0,11.94-3.48,105.45,0,121.37,7.46,9,149.23,9,158.19,6s7-25.37,6-34.32-6.46-86.56-17.41-95.51-124.54-11.08-136.48-5.11S667.6,698.68,667.6,698.68Z"/><path class="cls-9" d="M667.6,698.68c7-13.14,125.35-9.93,146.74-2.49-1-12.44-29.67-76.45-65-110.43C738,574.82,680,673.81,667.6,698.68Z"/><path class="cls-7" d="M724.83,743.86c-.57,0,55.65-1.31,55.65-1.31l9.62,85.25-65.28-.35Z"/><path class="cls-7" d="M742.22,597.7c7.86-5.62,60.34,87,62.33,95.4-18.4-5.45-118-4.35-125-.39C679.54,687.71,721.32,612.62,742.22,597.7Z"/><circle class="cls-6" cx="744.7" cy="652.42" r="26.86"/><path class="cls-7" d="M742.05,625.55S741,678.29,741,681.44c7.3-1.33,6.41-.53,8.39-.76-.15-3.11-.28-53-.61-55.13C746.76,625.89,744.21,624.39,742.05,625.55Z"/><path class="cls-7" d="M773.71,648.86h-56c-1.4,5.21-1.68,5.09-1.46,7.07,3.11-.15,55.94.33,58.1,0C774,653.94,774.88,651,773.71,648.86Z"/><path class="cls-6" d="M691.79,714.26c-3.79,6.47-4,37.79-3.79,44,9.12,1.75,26.69-.91,31.34-2.23,3.64-4.81-.5-37.48-1.5-43.11C710.38,711.78,699.07,713.77,691.79,714.26Z"/><line class="cls-10" x1="701.43" y1="707.46" x2="704.38" y2="765.66"/><line class="cls-10" x1="681.99" y1="742.12" x2="726.3" y2="735.72"/><path class="cls-6" d="M782.51,712.58a5.93,5.93,0,0,0-.25.61c-2.28,6.84,2.08,33.42,2.24,38.88.16,5.64,26.36.83,26.86-.83s-3.15-41.45-4-42.45c-4.48,1.49-15.6,1.47-25,4"/><path class="cls-11" d="M683.35,805c-6.22-2.77-12.11-20.56,5.3-22.72s17.25,5.14,16.58,13.27-.33,14.75-6.46,13.59-2.32-10.78,1.32-10.11,9.95-.67,11.44,6.63,2.58,16.25-2.83,18.9-31.65,1.66-36.46-1.66-8.46-17.9-3-22.88,10.61-7.79,14.1-4.31S687.82,807,683.35,805Z"/><path class="cls-12" d="M700.28,809.6c-6.22-2.76-12.11-20.56,5.3-22.71s17.25,5.14,16.58,13.26-.33,14.76-6.46,13.6S713.38,803,717,803.63s10-.66,11.44,6.64,2.58,16.25-2.83,18.9-31.65,1.66-36.46-1.66-8.46-17.91-3-22.88,10.61-7.79,14.1-4.31S704.75,811.59,700.28,809.6Z"/><path class="cls-11" d="M819,789c-7.27-.15-9.12,3.81-10.28,9.62s-.67,13.1,2.82,6.46,5-17.41-3.38-13.93-12.54,6.8-10,14.26,3.64,16.25,11.6,18.41,15.92,8.62,22.88,0,7.3-20.23,0-22.72-12.5.17-10.89,5.14,9.9,2.16,10.4-1.49S835.24,789.34,819,789Z"/><path class="cls-12" d="M801.28,795c7.26-.15,9.12,3.81,10.28,9.62s.66,13.1-2.82,6.46-5-17.41,3.38-13.93,12.54,6.8,10,14.26-3.65,16.25-11.61,18.41-15.91,8.62-22.88,0-7.29-20.23,0-22.72,12.51.17,10.9,5.14-9.9,2.16-10.4-1.49S785,795.3,801.28,795Z"/><polygon class="cls-6" points="735.59 762.51 771.9 761.59 777.57 827.78 737.16 827.17 735.59 762.51"/><line class="cls-10" x1="794.12" y1="706.47" x2="798.92" y2="767.65"/><line class="cls-10" x1="775.21" y1="732.34" x2="814.34" y2="732.17"/><path class="cls-7" d="M-62.3,264.5c14.14-5,128.6-12.18,145.94,0,10.78,33.28-11.25,364.62-12,379.34,29.14.58,158.76-3,177.74-3.59,11.49,41.85-2.5,182.9-2.5,182.9s-290.63.93-309.2.93C-75.24,793.15-65.29,274.81-62.3,264.5Z"/><path class="cls-7" d="M-62.3,270.8c14.14-5,128.6-12.18,145.94,0,10.78,33.28-11.25,364.62-12,379.34,27.44,1.69,152.92-2.53,175.24-5.34,20.92,38.43,0,184.65,0,184.65s-290.63.93-309.2.93C-75.24,799.45-65.29,281.11-62.3,270.8Z"/><path class="cls-6" d="M142,829.24c-.49-9.65.13-93.65.13-93.65-.65,0,27.68-1.74,42.66-.08,2.78,24.54,6.59,86,4.74,93.72C179.77,831.82,142,829.24,142,829.24Z"/><line class="cls-13" x1="933" y1="803.39" x2="928.07" y2="690.25"/><path class="cls-13" d="M902,710.79c-.78,4.14,9.45,30.43,28.51,33.34"/><path class="cls-13" d="M959.05,706c.77,4.13-9.46,30.43-28.52,33.33"/><path class="cls-13" d="M919.42,716.16c-.31,1.61,3.68,11.86,11.11,13"/><path class="cls-12" d="M880.81,621.16c-8.85,6.74-13.81,30-9.1,40.75s17.85,13.8,19.87,9.76,3.7-8.75-7.07-10.77S856,674.41,865.32,686.82c6,8,13.19,10.55,22.9,10.27A38.91,38.91,0,0,0,899,695.24c13.8-4.38,11.45-15.49,4.71-12.46s-22.21,19.87-15.48,26.6,25.25,12.46,35.69,4.72,20.2-17.85,12.12-20.88-15.11,1.17-10.78,8.76,18.86,19.53,34,10.43,15.42-20.8,13.13-24.24c-8-12-24.58-17.85-20.87-8.08s28.65,9.63,34.34,3c6.68-7.74,13.47-28.62-1-35.69s-25.92,7.4-17.51,7.4,17.51-7.4,19.2-17.51c1.75-10.5-4.72-17.17-17.18-21.21-14.69-4.77-40.74,3.7-43.1,15.15s18.52,19.53,20.21,9.43S924.16,588.16,880.81,621.16Z"/><path class="cls-12" d="M-97.39,686.43c-7.82,6-12.21,26.52-8,36.05s15.79,12.22,17.58,8.64,3.28-7.74-6.26-9.53-25.23,12-17,22.94c5.28,7.05,11.67,9.33,20.27,9.09A34.37,34.37,0,0,0-81.29,752c12.21-3.87,10.13-13.7,4.17-11s-19.66,17.58-13.7,23.54,22.34,11,31.58,4.17,17.87-15.79,10.72-18.47-13.37,1-9.53,7.74,16.68,17.29,30.09,9.24,13.65-18.41,11.63-21.45c-7.07-10.62-21.76-15.8-18.48-7.16s25.35,8.52,30.39,2.69c5.92-6.85,11.92-25.33-.89-31.59s-22.94,6.56-15.49,6.56,15.49-6.56,17-15.5C-2.27,691.44-8,685.53-19,682c-13-4.22-36,3.28-38.14,13.41s16.39,17.28,17.88,8.34S-59,657.23-97.39,686.43Z"/><path class="cls-9" d="M39.3,279.65c6.68-3,19,.64,25.26.64.54,8.31-3.74,50.61-4.75,60.68-7.59,1.26-17.62,0-21.15.76C34.63,332.66,39.3,279.65,39.3,279.65Z"/><path class="cls-9" d="M-2.81,340.27c6.68,2.91,20.55-.62,26.81-.62.54-8.11-.49-50.17-1.5-60-7.59-1.23-20.87.74-24.4,0C-5.93,288.5-2.81,340.27-2.81,340.27Z"/><path class="cls-9" d="M-.63,360.71c6.68-3,18.15-2.51,24.41-2.51.54,8.31,1,54.95,0,65-7.6,1.26-22.15-1.19-25.68-.44C-5.93,413.72-.63,360.71-.63,360.71Z"/><path class="cls-9" d="M61.69,360.69c-7.2-3.14-14.68.69-20.88.71-.55,8.31-1.06,51.75-.05,61.82,7.6,1.26,17.37-1.19,20.9-.44C65.69,413.72,61.69,360.69,61.69,360.69Z"/><path class="cls-9" d="M43.51,457.07c-8.5,0-12.89.49-19.14.49-.55,8.31,3.73,50.61,4.74,60.69,7.6,1.25,14.87,0,18.4.75C51.54,509.94,43.51,457.07,43.51,457.07Z"/><path class="cls-9" d="M19.37,551.47c5-1.12,18.09.64,24.34.64.55,8.31-3.73,50.61-4.74,60.68-7.6,1.26-17.63,0-21.15.75C13.79,604.48,19.37,551.47,19.37,551.47Z"/><path class="cls-14" d="M74.76,604.18c18.53-5.62,138.21-5.11,172.14-1.32,0,17.79,3.61,47.43,3.61,47.43"/><line class="cls-14" x1="89.86" y1="601.94" x2="89.86" y2="650.29"/><line class="cls-14" x1="109.85" y1="600.96" x2="106.8" y2="650.29"/><line class="cls-14" x1="131.42" y1="600.46" x2="130.19" y2="650"/><line class="cls-14" x1="153.7" y1="599.99" x2="153.7" y2="649.38"/><line class="cls-14" x1="176.43" y1="600.23" x2="177.81" y2="648.59"/><line class="cls-14" x1="197.67" y1="600.87" x2="199.03" y2="648.59"/><line class="cls-14" x1="225.04" y1="605.03" x2="226.42" y2="653.54"/><path class="cls-12" d="M1027.79,524c-19.81,4.52-32,20.27-34.41,44.28s3.24,50.68,12.14,46.94,18.62-10.67,7.69-24-31.17.54-34,27.21,5.26,53.35,24.29,46.41,4.86-25.07-3.65-16.53-13.35,38.41,8.51,49.61,53.84,13.34,66.79-20.27,0-63.49-13.36-56-1.62,19.21,8.1,12.81,22.67-17.09,14.57-39.22-18.62-34.94-26.31-22.13,5.12,29.56,10.93,16,10.93-25.48-1.21-40.75S1048.84,519.22,1027.79,524Z"/><line class="cls-13" x1="1039.93" y1="562.43" x2="1045.6" y2="811.56"/><line class="cls-13" x1="1022.52" y1="649.52" x2="1042.28" y2="665.51"/><line class="cls-13" x1="1022.89" y1="608.73" x2="1042.64" y2="624.72"/><line class="cls-13" x1="1022.13" y1="577.32" x2="1041.88" y2="593.31"/><line class="cls-13" x1="1051.42" y1="576.61" x2="1041.76" y2="594.03"/><line class="cls-13" x1="1057.59" y1="606.81" x2="1041.58" y2="622.71"/><line class="cls-13" x1="1058.44" y1="649.56" x2="1042.42" y2="665.46"/><path class="cls-12" d="M271.58,467.21c-18.43,8.26-28.9,26.48-23.48,34.91s25.88,17.46,20.47,6.62-5.81-11.43-21.87,1.81-22.67,53.57-5.82,61.39,24.68,8.43,25.88,0-9.07-9-15.46-3.61-23.66,9-15.24,34.31,24.08,50,56,45.14,58.39-27.08,62.6-63.2-10.83-76.44-32.5-77.64-36.72,25.88-23.48,27.68,25.28-18,14.45-34.3-16.38-13.25-19.93-4.22,13.91,19.26,22.34-1.8S289,459.39,271.58,467.21Z"/><path class="cls-15" d="M293.18,608.06c.06,0,0,225.71,0,225.71"/><path class="cls-16" d="M276,637c0,5.42-5.72,30.09,17.19,28.89"/><path class="cls-16" d="M310.37,599.92c0,5.42,5.73,30.1-17.19,28.9"/><polygon class="cls-6" points="10.1 601.19 48.06 601.19 45.22 613.77 12.68 613.77 10.1 601.19"/><polygon class="cls-6" points="-35.68 507.45 2.28 507.45 -0.56 520.03 -33.1 520.03 -35.68 507.45"/><polygon class="cls-6" points="21.2 507.45 59.17 507.45 56.33 520.03 23.78 520.03 21.2 507.45"/><polygon class="cls-6" points="-8.14 330.32 29.09 330.32 26.31 342.66 -5.6 342.66 -8.14 330.32"/><polygon class="cls-6" points="32.4 330.32 69.63 330.32 66.84 342.66 34.93 342.66 32.4 330.32"/><polygon class="cls-6" points="-8.89 412.04 29.08 412.04 26.24 424.62 -6.3 424.62 -8.89 412.04"/><polygon class="cls-6" points="32.84 412.04 70.8 412.04 67.96 424.62 35.42 424.62 32.84 412.04"/><path class="cls-9" d="M390.78,510c-6,24.68-1.21,298.39,0,315.19,31.16,5.9,219.53,6.26,228.72,4.14,2-25.13-15.43-306.48-15.26-315.63C575.33,510.09,403.32,508.73,390.78,510Z"/><path class="cls-6" d="M391.56,481.6c-1.63,4.48.48,17-2.65,29,16.8-2.28,208.6,3.77,215.57,3.9-2.83-14.59-2-21.44-2.67-26C583.24,486.65,405.51,481.85,391.56,481.6Z"/><path class="cls-7" d="M384.27,561.89l222.56,1.2,37.28,28.6s-278.24,1.13-279.37.34S384.27,561.89,384.27,561.89Z"/><path class="cls-17" d="M365.77,592.32c-1.12.55-1.58,20,9.48,22.72s24.35-.67,23.24-14.81c-.67-8.64-12.59,1.39-6.84,11.1,4.48,7.58,11.23,12.31,19.06,9.32s24.35-19.74,13.74-22.79c-10.89-3.14-9,24.87,5.89,22.58s23.91-15,21.36-18.91c-4.11-6.31-8.43-3.07-10.74.77s-4.24,13.42,6.45,15.89S491,599,473,597.88c-10.61-.64-4.1,21.83,10.73,21s19.62-20.69,14.06-20.22-8.32,19.19,4.38,18.57,23.06-20.55,18.63-21.24.7,22.44,10.72,20.91,16.74-24.73,10.8-23.7.27,26.18,13.65,23.29,16.23-17.34,10.71-19.15-5.86,17,4.12,18,16,.09,18.62-6c.88-2.08,2.17-8.59-3.38-8.69s-7,6.6-6,9c.84,2,2.38,4.09,10.89,6,11.41,2.59,26.16-12.67,24.76-16.68s-8.25-5.71-10.2-.55-.3,14.41,3.43,15.85,12.24-1.49,18.6-5.35,12.56-14.78,6.27-15.27-7.78,5.1-8.27,7.27-1,12.5,6.36,12.63,14.91-17.66,10.56-22.86"/><path class="cls-6" d="M413.43,555.21c10.09.69,26.84.71,29.13.75,1.33-10.27.6-31.87-12-32.09S414.87,539.22,413.43,555.21Z"/><path class="cls-6" d="M469.58,557c9.09.9,27.21,1.07,29.68,1,.85-11,1.28-33.74-12.29-33.27S470.21,539.93,469.58,557Z"/><path class="cls-6" d="M537.39,559.76c8.47-.14,25.16-2,27.42-2.3-.44-10.35-2.56-31.62-15-29.7S536.08,543.76,537.39,559.76Z"/><line class="cls-14" x1="430.99" y1="518.15" x2="430.24" y2="559.89"/><line class="cls-14" x1="408.11" y1="539.28" x2="448.9" y2="540.02"/><line class="cls-14" x1="486.88" y1="521.51" x2="486.16" y2="560.91"/><line class="cls-14" x1="551.52" y1="524.77" x2="550.84" y2="562.08"/><line class="cls-14" x1="466.33" y1="541.82" x2="505.66" y2="541.55"/><line class="cls-14" x1="532.8" y1="544.7" x2="565.11" y2="545.05"/><path class="cls-6" d="M401.88,667.39l92-1s-9,14-12.84,17.75c-13,.91-69.06,1.8-77.05,1.28C402.4,680.84,403,669.7,401.88,667.39Z"/><path class="cls-6" d="M422.11,805.93c18.56,2.45,46.71,1.33,54.35,1.42,1.48-21.71,0-90.92-2.67-99.05-4.48-13.43-19.08-16-28.72-14.51-8.71,1.38-21.3,11.29-23.17,28.06S422.11,805.93,422.11,805.93Z"/><path class="cls-7" d="M399.45,802.77c-1.29,8,2.06,12.62-.33,18.3,8,.14,90,.86,95.3,1.72,3.15-5.66.26-14.48.33-18.29C488.62,806.29,410.49,804.11,399.45,802.77Z"/><path class="cls-6" d="M548.15,639.63c-14.42,2.13-20.3,8.78-24.84,28.15s8.39,126.37,7.08,135.5c14.83,2.17,56.84-1.2,61.4-.58-.54-12.43-7.69-122.76-13.22-133.54S566.49,636.92,548.15,639.63Z"/><path class="cls-14" d="M548.15,639.63c0-1.14,12.16,170.67,12.16,170.67"/><line class="cls-14" x1="514.57" y1="682.87" x2="591.26" y2="680.22"/><line class="cls-14" x1="512.18" y1="713.04" x2="588.87" y2="710.39"/><line class="cls-14" x1="516.04" y1="753.02" x2="592.74" y2="750.36"/><circle class="cls-7" cx="450.56" cy="725.31" r="15.4"/><circle class="cls-9" cx="450.9" cy="725.32" r="11.07"/><path class="cls-12" d="M438.87,653.65c3.69,2.37,4-2.68,2.3-7.76-1.78-5.34-4.81-9.21-12.21-8.6-3.35.27-8.43,4.36-10.23,7.83-3.24,6.29-.44,11.16,3.56,9.79s-1.18-15.15-9.58-15.3-17.25,4.27-17.45,15.53c-.08,4,2.63,13.15,9.57,13,1.42,0,91.75-.89,91.75-.89s7.15-1,3.63-9.84c-3.18-8-13.13-9.24-16.62-5s.39,6.83,3.15,5.41c8.08-4.14,5.29-11.64-1.93-13.3s-16,1-18.44,4.65c-2.26,3.46,2.61,8.21,6.43,3,6-8.16-1.2-17.8-9.22-17.27s-15.11,6.18-16.47,12.67,5.28,11.43,8.89,8.58c6.73-5.3-6.54-15.33-11.52-13.91C440.85,643.38,433.79,650.4,438.87,653.65Z"/><path class="cls-12" d="M405.4,667.33c0-1.14,3.2,30.37.47,33.75s-14-.22-8.58-2.41,14.68.69,9.57,6.7-5.77,5.59-7.63,4.6c-5.47-2.92,9.1-7.56,8.24,2.31-.52,6-3.17,16-8.13,11.6-1.8-1.61,1.61-5.25,5-4.49,3.62.82,9.85,8.5,2.81,13.05"/><path class="cls-12" d="M494,662.81c0-1.14,2.38,14.94-.35,18.32s-14.52,2-9.14-.17,14.26,3.43,10.83,7.45c-5.13,6-11.67,14-12.48,7.8s13.38-10.51,11.37-4.8-3.09,17.89-8.57,14.12,7.47-7.89,7.64-4.18,6.4,11.47.5,14.1"/><line class="cls-18" x1="394.47" y1="562.2" x2="381.2" y2="597.86"/><line class="cls-18" x1="416.35" y1="562.55" x2="407.42" y2="596.41"/><line class="cls-18" x1="440.78" y1="563.6" x2="438.08" y2="597.06"/><line class="cls-18" x1="464.89" y1="563.35" x2="466.38" y2="597.38"/><line class="cls-18" x1="481.8" y1="562.42" x2="484.28" y2="614.45"/><line class="cls-18" x1="500.32" y1="562.52" x2="508.84" y2="595.81"/><line class="cls-18" x1="522.12" y1="563.59" x2="532.85" y2="594.33"/><line class="cls-18" x1="543.5" y1="562.75" x2="556.79" y2="595.66"/><line class="cls-18" x1="569.42" y1="562.89" x2="583.09" y2="595.75"/><line class="cls-18" x1="596.13" y1="563.03" x2="618.11" y2="591.96"/><line class="cls-19" x1="405.72" y1="668.02" x2="409.03" y2="685.58"/><line class="cls-19" x1="412.99" y1="667.27" x2="415.01" y2="685.6"/><line class="cls-19" x1="423.34" y1="667.4" x2="423.34" y2="685.56"/><line class="cls-19" x1="436.21" y1="667.03" x2="435.88" y2="685.42"/><line class="cls-19" x1="450.43" y1="666.88" x2="447" y2="685.24"/><line class="cls-19" x1="461.18" y1="667.21" x2="456.33" y2="685.04"/><line class="cls-19" x1="474.03" y1="667.22" x2="465.27" y2="684.81"/><line class="cls-19" x1="482.88" y1="667.24" x2="474.49" y2="684.51"/><line class="cls-20" x1="450.96" y1="703.5" x2="450.2" y2="745.39"/><line class="cls-20" x1="431.39" y1="724.1" x2="470.44" y2="724.8"/><path class="cls-7" d="M524.09,789.91c-.81,8,1.8,12.57.12,18.3,6,0,67.51-1.19,71.52-.45,2.26-5.73-.09-14.49-.11-18.3C591.05,791.39,532.4,791,524.09,789.91Z"/><line class="cls-14" x1="74.76" y1="668.45" x2="-0.71" y2="830.38"/><line class="cls-14" x1="74.76" y1="650.29" x2="-12.52" y2="830.9"/><line class="cls-14" x1="74.76" y1="604.18" x2="74.76" y2="830.03"/><line class="cls-14" x1="74.76" y1="650.29" x2="250.51" y2="650.29"/><path class="cls-14" d="M109.85,661.37c-.43.93-.18,8.62,7.28,6.92,11.22-2.56,9-18-1.55-18s-18.12,6.34-21,20.34c-3.74,17.85-12.91,21-17.47,15.5-4.19-5,1.77-11.8,5.28-10.92,5.1,1.27,1.46,5.64,1.46,5.64"/><path class="cls-14" d="M220.15,662.27c.43.93.18,8.63-7.27,6.92-11.23-2.56-9-18,1.54-18s18.13,6.34,21.06,20.34c3.73,17.84,12.91,21,17.46,15.5,4.2-5-1.76-11.81-5.28-10.93-5.1,1.28-1.46,5.65-1.46,5.65"/><polygon class="cls-7" points="1181.16 834.62 1197.83 803.45 1230.83 803.53 1246.74 833.57 1239.43 715.87 1170.24 717.77 1181.16 834.62"/><path class="cls-21" d="M1071.21,473.39c6.67,14.62,12,26.54,12,26.54L1099.28,808l81.77,25.43-9.62-115.81,66.92-1.84,6,117.69,45.82-25.35.24-287.28,15.29-27.68-42.49-51.95-135.53-7Z"/><polygon class="cls-9" points="1147.13 473.25 1161.14 636.54 1171.43 717.61 1238.35 715.77 1240.46 480.42 1147.13 473.25"/><path class="cls-6" d="M1103.16,598.61c8.72,0,24.73-3,28.73-4.15,1.85-13.07-.89-71.15-14.15-73.88S1098.86,577.83,1103.16,598.61Z"/><path class="cls-6" d="M1278.29,594.63c-6.73-.19-19-3.33-22-4.46-1.07-11.87,2.64-64.36,12.94-66.5S1282.18,575.93,1278.29,594.63Z"/><path class="cls-7" d="M1180,585.05c12,.65,37.4,1,40.19,1.24-.28-27.24-9.55-88.57-25.29-85.76S1171.05,544,1180,585.05Z"/><path class="cls-7" d="M1186.08,698.48c9.48.33,29.5.35,31.69.51.29-16.57-5.88-53.84-18.35-52S1179.78,673.57,1186.08,698.48Z"/><path class="cls-6" d="M1121.83,681.34s28-5.31,33.46-6.45c3.25,6.93,13.45,130.79,12,136.94-9.81-2.33-34.79-6.62-40.28-10.1C1125.9,786.34,1125.42,696.35,1121.83,681.34Z"/><path class="cls-22" d="M1135.77,678.69c.11,5.93,9,114,6.75,127.85"/><path class="cls-22" d="M1125.53,748.27c.72,0,28.77-4,37.5-4.9"/><path class="cls-6" d="M1244.71,677.43c.33,11.16,9.13,113.09,8.74,122.32,5.1-2.29,17.83-5.34,24-10.32,4-14.22-3.33-109.94-3.31-116.32C1269.8,674.81,1252.34,676.3,1244.71,677.43Z"/><path class="cls-22" d="M1259.18,675.66c-.1,10.89,10.85,106.25,8.53,118.93"/><path class="cls-22" d="M1249.57,742.14c8.54-3,12.12-6.32,27.9-10.89"/><path class="cls-9" d="M1080.2,620.86c5.41,13.47,10.88,30.22,10.88,30.22l68.32-14.44,77.78,3.08,53.4,12.18,21.06-31.15L1241.29,599l-89.42-1.77Z"/><path class="cls-6" d="M1193.66,736.81l4.17,66.64,33,.08c-.24-19.67-4.42-66.72-4.42-66.72Z"/><polyline class="cls-23" points="1083.44 499.73 1145.38 473.35 1238.71 480.51 1290.58 521.03"/><polyline class="cls-10" points="1075.75 482.52 1132.79 445.99 1259.8 451.34 1302 500.44"/><polyline class="cls-10" points="1079.23 490.26 1140.11 459.11 1250.45 467.14 1295.62 511.95"/><polyline class="cls-24" points="1084.6 632.39 1154.28 608.2 1239.31 608.3 1302.08 632.37"/><polyline class="cls-24" points="1089.24 645.59 1156.57 622.22 1239.19 622.22 1295.3 644.93"/></g><rect class="cls-25" x="-8.87" y="-0.21" width="1287.91" height="826.2"/></svg>