<svg id="search" xmlns="http://www.w3.org/2000/svg" viewBox="0 0 1236 834"><defs><style>.cls-1{fill:#fcedeb;opacity:0.66;}.cls-2{fill:#fff;}.cls-3{fill:#ddc6c3;opacity:0.32;}.cls-4{fill:none;}</style></defs><title>modal-bg</title><rect class="cls-1" x="5.18" y="700.46" width="1294.63" height="119.34"/><rect class="cls-2" x="6.58" y="-17.89" width="1291.84" height="835.9"/><rect class="cls-2" x="-277" y="-11.22" width="1576.82" height="835.9"/><path class="cls-1" d="M1304.74,434.27H1098.9V353.4H980.32v65.31l-27-3.11V194.78L802.43,218.4v191H727L710.8,387.61v-84l-21.56,10.89v82.42H640.72v37.33h-27l-40.43-59.21H541l-13.47-41.64H276.88V289.17H228.36v85.89H136.73l-13.48,59.21-91.64,31.1-59.34-82.85-5.34-7.46c-32.34,65.43-37.73,90.31-37.73,90.31H-93V330.07L-268,101l-18,300-2,386,75.86-18.92,899.42.46,618.28-.46Z"/><path class="cls-3" d="M-216.45,543.11l138.16,13.11V475.35H40.3v65.32l27-3.11,150.93-6.22h75.46l16.18-21.77v-84l21.56,10.89V518.9h48.51v37.32h26.95L447.27,497h32.34l13.48-41.64H743.74V281.12h48.51V497h91.64l13.47,59.2L989,587.32l59.34-82.85,5.34-7.45c32.35,65.42,37.74,90.3,37.74,90.3h115.89l2.83-97.5L1306,280.25l-4.75,181.11,3.93,306.72H-212.55Z"/><rect class="cls-4" x="289.07" y="192.18" width="955.46" height="618.9"/><rect class="cls-1" x="-271" y="715.86" width="1573.54" height="117.83"/><rect class="cls-4" x="0.19" y="-16" width="1302.35" height="849.69"/></svg>