<svg id="search" xmlns="http://www.w3.org/2000/svg" viewBox="0 0 800 560"><defs><style>.cls-1{fill:#fcedeb;opacity:0.66;}.cls-2{fill:#fff;}.cls-3{fill:#ddc6c3;opacity:0.32;}.cls-4{fill:none;}.cls-5,.cls-7,.cls-8,.cls-9{fill:#aac9ce;stroke:#fff;stroke-miterlimit:10;}.cls-5{opacity:0.4;}.cls-6{opacity:0.5;}.cls-7{opacity:0.7;}.cls-9{opacity:0.9;}</style></defs><title>modal-bg</title><rect class="cls-1" x="-3.33" y="504" width="956.78" height="88.2"/><rect class="cls-2" x="-2.29" y="-26.89" width="954.72" height="617.76"/><rect class="cls-2" x="-211.87" y="-21.96" width="1165.32" height="617.76"/><path class="cls-1" d="M957.09,307.27H805V247.51H717.33v48.27l-19.92-2.3V130.28L585.87,147.74V288.88H530.1l-12-16.09V210.73l-15.94,8v60.92H466.36v27.58H446.44l-29.88-43.75h-23.9l-10-30.78H197.46V200H161.61v63.48H93.89l-10,43.75-67.72,23L-27.65,269l-4-5.51c-23.9,48.35-27.88,66.74-27.88,66.74H-75.92v-100L-205.22,61l-13.3,221.72L-220,568l56.07-14,664.69.34L957.7,554Z"/><path class="cls-3" d="M-167.12,387.71-65,397.4V337.64H22.62v48.27l19.92-2.3L154.08,379h55.78l11.95-16.09V300.86l15.93,8v60.92h35.85V397.4h19.92l29.88-43.76h23.9l10-30.77H542.49V194.09h35.85V353.64h67.73l10,43.76,67.72,23,43.86-61.22,3.94-5.52c23.9,48.36,27.89,66.74,27.89,66.74h85.65l2.09-72.06L958,193.45,954.49,327.3,957.39,554H-164.24Z"/><rect class="cls-4" x="206.48" y="128.36" width="706.12" height="457.39"/><rect class="cls-1" x="-207.44" y="515.38" width="1162.9" height="87.08"/><rect class="cls-4" x="-7.02" y="-25.49" width="962.48" height="627.95"/><path class="cls-5" d="M98.85,30.53c-3.56,2.57-1.75,5.24.86,4,5.18-2.48,3.11-8.8-2.32-11.51-8.13-4.07-14.94-1.83-22.19.66-4.52,1.56-8.34,8.24-4.34,8.89,5,.81.27-11-8.59-13.27-10.1-2.61-20.85.44-27,4.18S24,36.61,28.47,40.3c1.47,1.22,5.25-.61,1.79-2.54s-6.58-3.63-10.82-2.29-6.39,6.78-4.41,9.8c2.2,3.36,5.4,2.63,9,1,1.88-.83.17-3-1.33-2.17-2.74,1.55-3.91,3.76-3.26,6.24C19,50.9,133.3,53.22,133.3,53.22s2.53-3.89-5.75-9.93c-9.2-6.72-16.66-5-14.18-.42,1.35,2.5,10.9,2.88,6.25-9C117.25,27.86,108.55,23.55,98.85,30.53Z"/><g class="cls-6"><path class="cls-7" d="M339.25,55.93c-4.62,1.81-.1,6.45,2.29,4.7,1.11-.81,6.37-5,3.72-11.9-3.1-8.1-13.42-9.09-19.35-5.27s-5.14,12.87-2,11.24,3.38-5.56-2.83-8.64a18.62,18.62,0,0,0-21.19,3.15c-5.38,5-6.26,16.23-2.64,19.54s9.79,2.8,7.42-.32S292.26,65,289.79,67.5c-2.82,2.85-3.28,7.82-1.09,12.07,2.4,4.67,6.51,4.43,8.61,1.37s.15-5.09-2-4.67c-4.47.91-4.45,8.42-2.76,10.54,3.47-.38,72.92.55,72.92.55s2.27-10.51-5.07-13.91-13.8-3.87-13.4-.16S359,70.7,356.7,61.12C355,54.06,347.78,52.59,339.25,55.93Z"/><path class="cls-8" d="M211.05,97.43c-4.6,1.81-.1,6.43,2.28,4.69,1.11-.82,6.36-4.94,3.71-11.87C214,82.18,203.67,81.19,197.75,85s-5.12,12.83-2,11.21,3.36-5.55-2.83-8.62a18.56,18.56,0,0,0-21.12,3.14c-5.36,5-6.24,16.18-2.64,19.49s9.77,2.78,7.41-.33-12.39-3.42-14.86-.92c-2.81,2.84-3.26,7.79-1.08,12,2.39,4.66,6.5,4.42,8.59,1.36s.15-5.07-2-4.65c-4.47.91-4.44,8.39-2.76,10.51,3.46-.38,72.7.55,72.7.55s2.26-10.48-5-13.87-13.77-3.86-13.36-.17,11.9-2.58,9.63-12.12C226.78,95.57,219.55,94.1,211.05,97.43Z"/><path class="cls-9" d="M369.33,64.87c-6.08,1.25-8.94,5.71-7.45,9.19s7.72-.62,6.23-3.23c-3-5.32-10.55-7.1-16.51-3.72S342.76,79,346.24,83.5,355,89,355.32,85.61c.5-4.64-8.06-4.6-10.06,1.11s.5,11.92,6.46,12.67,15.63.25,15.13-4-4.7-5-6.19-2.23c-2,3.71-3,8.69,1.22,8.94s29.55-.25,33.28,0c4.47-3.48,5-11.67,0-12.42s-7.43,2.36-4.45,3.36,6.74-3.38,3.85-7.45-9.69-5.47-12.67-1.49-.12,7.45,3.6,3.72,5.72-11,3-15.52C383.7,64.52,377.05,63.29,369.33,64.87Z"/><path class="cls-7" d="M563.39,76.78c-6.39,2.5-.13,8.93,3.17,6.51,1.54-1.13,8.83-6.86,5.15-16.48-4.29-11.21-18.57-12.58-26.77-7.3s-7.13,17.82-2.76,15.57,4.67-7.71-3.92-12a25.78,25.78,0,0,0-29.33,4.37c-7.45,7-8.66,22.46-3.66,27.05s13.55,3.87,10.28-.45-17.19-4.75-20.62-1.29c-3.91,3.95-4.53,10.83-1.51,16.72,3.32,6.46,9,6.13,11.92,1.88s.21-7-2.71-6.45c-6.19,1.25-6.16,11.64-3.83,14.58,4.82-.52,100.94.77,100.94.77s3.15-14.56-7-19.26-19.11-5.35-18.55-.23S590.7,97.22,587.55,84C585.23,74.19,575.2,72.15,563.39,76.78Z"/><path class="cls-7" d="M729.64,40.69c-7.82,1.6-11.5,7.35-9.58,11.82s9.93-.8,8-4.15c-3.91-6.85-13.58-9.14-21.24-4.79s-11.37,15.33-6.9,21.08,11.23,7,11.69,2.72c.64-6-10.37-5.91-13,1.43s.65,15.34,8.32,16.3,20.1.32,19.46-5.11-6.05-6.39-8-2.88c-2.6,4.77-3.86,11.18,1.57,11.5s38-.32,42.81,0c5.75-4.47,6.39-15,0-16s-9.56,3-5.73,4.31,8.68-4.34,5-9.58-12.46-7-16.3-1.92-.16,9.58,4.64,4.79,7.35-14.13,3.8-20C748.13,40.24,739.57,38.66,729.64,40.69Z"/></g></svg>