<svg id="search" xmlns="http://www.w3.org/2000/svg" viewBox="0 0 716 495"><defs><style>.cls-1{fill:#fcedeb;opacity:0.66;}.cls-2{fill:#fff;}.cls-3{fill:#ddc6c3;opacity:0.32;}.cls-10,.cls-11,.cls-17,.cls-18,.cls-19,.cls-4{fill:none;}.cls-5,.cls-6,.cls-7,.cls-8{fill:#aac9ce;stroke:#fff;}.cls-10,.cls-11,.cls-13,.cls-16,.cls-17,.cls-18,.cls-19,.cls-5,.cls-6,.cls-7,.cls-8,.cls-9{stroke-miterlimit:10;}.cls-5{opacity:0.7;}.cls-7{opacity:0.4;}.cls-8{opacity:0.9;}.cls-9{fill:#5b897e;stroke:#aac9ce;stroke-width:0.75px;}.cls-10,.cls-11{stroke:#343947;}.cls-10{stroke-width:4px;}.cls-11{stroke-width:6px;}.cls-12,.cls-13,.cls-16{fill:#e19271;}.cls-13,.cls-18{stroke:#f4b3a2;}.cls-13,.cls-16,.cls-19{stroke-width:2px;}.cls-14{fill:#f4b3a2;}.cls-15{fill:#c97253;}.cls-16,.cls-19{stroke:#e19271;}.cls-17{stroke:#ddc6c3;}.cls-18{stroke-width:3px;}</style></defs><title>Artboard 4</title><rect class="cls-1" x="-308.82" y="380.46" width="1294.63" height="119.34"/><rect class="cls-2" x="-307.42" y="-337.89" width="1291.84" height="835.9"/><rect class="cls-2" x="-591" y="-331.22" width="1576.82" height="835.9"/><path class="cls-1" d="M990.74,114.27H784.9V33.4H666.32V98.71l-27-3.11V-125.22L488.43-101.6v191H413L396.8,67.61v-84L375.24-5.48V76.94H326.72v37.33h-27L259.34,55.06H227L213.53,13.42H-37.12V-30.83H-85.64V55.06h-91.63l-13.48,59.21-91.64,31.1-59.34-82.85-5.34-7.46c-32.34,65.43-37.73,90.31-37.73,90.31H-407V10.07L-582-219-600,81l-2,386,75.86-18.92,899.42.46,618.28-.46Z"/><path class="cls-3" d="M-530.45,223.11l138.16,13.11V155.35H-273.7v65.32l26.95-3.11,150.93-6.22h75.46l16.18-21.77v-84l21.56,10.89V198.9H65.89v37.32h27L133.27,177h32.34l13.48-41.64H429.74V-38.88h48.51V177h91.64l13.47,59.2L675,267.32l59.34-82.85,5.34-7.45c32.35,65.42,37.74,90.3,37.74,90.3H893.31l2.83-97.5L992-39.75l-4.75,181.11,3.93,306.72H-526.55Z"/><rect class="cls-4" x="-24.93" y="-127.82" width="955.46" height="618.9"/><rect class="cls-1" x="-585" y="395.86" width="1573.54" height="117.83"/><rect class="cls-4" x="-313.81" y="-336" width="1302.35" height="849.69"/><path class="cls-5" d="M290.68,72.85c-4.63,1.81-.1,6.47,2.29,4.71,1.12-.82,6.39-5,3.73-11.93-3.1-8.12-13.44-9.11-19.39-5.28s-5.15,12.89-2,11.27S278.7,66,272.48,63a18.68,18.68,0,0,0-21.24,3.16c-5.39,5.06-6.28,16.27-2.65,19.59s9.81,2.81,7.44-.32-12.45-3.44-14.93-.93c-2.83,2.85-3.28,7.83-1.09,12.1,2.4,4.68,6.53,4.44,8.63,1.36s.15-5.1-2-4.67c-4.49.91-4.46,8.43-2.77,10.56,3.48-.38,73.09.55,73.09.55s2.28-10.53-5.08-13.94-13.84-3.88-13.43-.16,12-2.6,9.69-12.2C306.49,71,299.23,69.5,290.68,72.85Z"/><path class="cls-6" d="M162.17,114.45c-4.61,1.81-.09,6.45,2.29,4.7,1.11-.82,6.37-5,3.72-11.9-3.1-8.09-13.41-9.08-19.33-5.27s-5.14,12.86-2,11.24,3.37-5.56-2.83-8.64a18.62,18.62,0,0,0-21.18,3.15c-5.37,5-6.25,16.22-2.64,19.53s9.79,2.8,7.42-.32-12.41-3.43-14.89-.93c-2.81,2.85-3.27,7.82-1.08,12.07,2.39,4.66,6.51,4.42,8.6,1.36s.16-5.09-2-4.66c-4.48.91-4.45,8.4-2.77,10.53,3.48-.38,72.88.55,72.88.55s2.27-10.51-5.07-13.91-13.79-3.86-13.38-.16,11.92-2.59,9.65-12.15C177.94,112.58,170.7,111.11,162.17,114.45Z"/><path class="cls-7" d="M49.85,47.53c-3.56,2.57-1.75,5.24.86,4,5.18-2.48,3.11-8.8-2.32-11.51-8.13-4.07-14.94-1.83-22.19.66-4.52,1.56-8.34,8.24-4.34,8.89,5,.81.27-11-8.59-13.27-10.1-2.61-20.85.44-27,4.18S-25,53.61-20.53,57.3c1.47,1.22,5.25-.61,1.79-2.54s-6.58-3.63-10.82-2.29-6.39,6.78-4.41,9.8c2.2,3.36,5.4,2.63,9,1,1.88-.83.17-3-1.33-2.17-2.74,1.55-3.91,3.76-3.26,6.24C-30,67.9,84.3,70.22,84.3,70.22s2.53-3.89-5.75-9.93c-9.2-6.72-16.66-5-14.18-.42,1.35,2.5,10.9,2.88,6.25-9C68.25,44.86,59.55,40.55,49.85,47.53Z"/><path class="cls-8" d="M320.33,81.87c-6.08,1.25-8.94,5.71-7.45,9.19s7.72-.62,6.23-3.23c-3-5.32-10.55-7.1-16.51-3.72S293.76,96,297.24,100.5s8.73,5.46,9.08,2.11c.5-4.64-8.06-4.6-10.06,1.11s.5,11.92,6.46,12.67,15.63.25,15.13-4-4.7-5-6.19-2.23c-2,3.71-3,8.69,1.22,8.94s29.55-.25,33.28,0c4.47-3.48,5-11.67,0-12.42s-7.43,2.36-4.45,3.36,6.74-3.38,3.85-7.45-9.69-5.47-12.67-1.49-.12,7.45,3.6,3.72,5.72-11,3-15.52C334.7,81.52,328.05,80.29,320.33,81.87Z"/><path class="cls-9" d="M12.32,225.94C.55,228.63-6.68,238-8.13,252.25s1.93,30.11,7.22,27.89,11.06-6.34,4.57-14.26-18.52.31-20.2,16.16,3.12,31.69,14.43,27.57,2.88-14.89-2.17-9.82-7.93,22.82,5.05,29.47,32,7.93,39.69-12,0-37.71-7.94-33.28-1,11.41,4.81,7.61S50.8,281.4,46,268.25,34.93,247.49,30.36,255.1s3,17.57,6.49,9.51,6.49-15.14-.72-24.21S24.82,223.09,12.32,225.94Z"/><line class="cls-10" x1="19.53" y1="248.76" x2="22.9" y2="396.77"/><line class="cls-10" x1="9.19" y1="300.5" x2="20.93" y2="310"/><line class="cls-10" x1="9.41" y1="276.27" x2="21.14" y2="285.77"/><line class="cls-10" x1="8.96" y1="257.61" x2="20.69" y2="267.11"/><line class="cls-10" x1="26.36" y1="257.19" x2="20.62" y2="267.53"/><line class="cls-10" x1="30.02" y1="275.13" x2="20.51" y2="284.57"/><line class="cls-10" x1="30.53" y1="300.53" x2="21.01" y2="309.97"/><path class="cls-9" d="M188.68,224.92c-8.66,3.88-13.58,12.45-11,16.41s12.17,8.2,9.62,3.11-2.73-5.38-10.28.85-10.65,25.18-2.73,28.85,11.6,4,12.16,0-4.26-4.24-7.27-1.69S168,276.69,172,288.57s11.32,23.48,26.31,21.22,27.45-12.73,29.43-29.71-5.1-35.92-15.28-36.49-17.26,12.17-11,13,11.88-8.48,6.79-16.12-7.7-6.23-9.37-2,6.54,9.05,10.5-.85S196.88,221.24,188.68,224.92Z"/><path class="cls-11" d="M198.83,291.12s0,106.09,0,106.09"/><path class="cls-11" d="M190.77,304.7c0,2.54-2.7,14.14,8.07,13.58"/><path class="cls-11" d="M206.91,287.3c0,2.54,2.69,14.14-8.08,13.58"/><polygon class="cls-12" points="103.44 410.48 113.34 391.96 132.95 392 142.4 409.85 138.06 339.92 96.95 341.05 103.44 410.48"/><path class="cls-13" d="M38.11,195.86c4,8.69,7.12,15.77,7.12,15.77l9.56,183,48.58,15.11L97.66,341l39.76-1.09L141,409.79l27.22-15.07.14-170.67,9.09-16.45-25.24-30.86-80.53-4.16Z"/><polygon class="cls-14" points="83.22 195.78 91.55 292.8 97.66 340.96 137.41 339.87 138.67 200.04 83.22 195.78"/><path class="cls-15" d="M57.1,270.26c5.18,0,14.69-1.79,17.07-2.47,1.1-7.76-.53-42.27-8.41-43.89S54.54,257.91,57.1,270.26Z"/><path class="cls-15" d="M161.14,267.89a60.06,60.06,0,0,1-13.09-2.64c-.64-7.06,1.57-38.24,7.69-39.52S163.46,256.78,161.14,267.89Z"/><path class="cls-12" d="M102.75,262.2c7.15.39,22.23.57,23.88.74-.16-16.18-5.67-52.62-15-50.95S97.43,237.83,102.75,262.2Z"/><path class="cls-12" d="M106.36,329.59c5.63.2,17.53.21,18.83.31.17-9.85-3.5-32-10.91-30.92S102.62,314.8,106.36,329.59Z"/><path class="cls-15" d="M68.19,319.41s16.64-3.15,19.88-3.83c1.93,4.12,8,77.7,7.12,81.36-5.83-1.39-20.67-3.94-23.93-6C70.61,381.79,70.33,328.33,68.19,319.41Z"/><path class="cls-16" d="M76.47,317.83c.06,3.53,5.33,67.74,4,76"/><path class="cls-16" d="M70.39,359.17c.43,0,17.09-2.4,22.28-2.91"/><path class="cls-15" d="M141.19,317.09c.2,6.62,5.43,67.19,5.2,72.67,3-1.36,10.59-3.17,14.27-6.13,2.4-8.45-2-65.32-2-69.11C156.1,315.53,145.73,316.41,141.19,317.09Z"/><path class="cls-16" d="M149.79,316c-.06,6.46,6.45,63.12,5.07,70.65"/><path class="cls-16" d="M144.08,355.53c5.08-1.77,7.2-3.76,16.58-6.47"/><path class="cls-14" d="M43.45,283.48c3.22,8,6.47,17.95,6.47,17.95l40.59-8.58,46.21,1.84,31.73,7.23L181,283.41l-41.8-12.94L86,269.42Z"/><path class="cls-15" d="M110.86,352.37,113.34,392,133,392c-.15-11.68-2.63-39.63-2.63-39.63Z"/><polyline class="cls-17" points="45.38 211.51 82.18 195.84 137.63 200.1 168.45 224.17"/><polyline class="cls-18" points="40.81 201.28 74.7 179.59 150.16 182.76 175.23 211.94"/><polyline class="cls-18" points="42.88 205.89 79.05 187.38 144.61 192.15 171.44 218.78"/><polyline class="cls-19" points="46.07 290.33 87.47 275.95 137.99 276.02 175.28 290.32"/><polyline class="cls-19" points="48.83 298.17 88.83 284.29 137.91 284.29 171.25 297.78"/></svg>