<svg id="search" xmlns="http://www.w3.org/2000/svg" xmlns:xlink="http://www.w3.org/1999/xlink" viewBox="0 0 1280 800"><defs><style>.cls-1,.cls-11,.cls-14,.cls-15,.cls-16,.cls-17,.cls-20,.cls-21,.cls-24,.cls-25{fill:none;}.cls-2{clip-path:url(#clip-path);}.cls-3{fill:#fcedeb;opacity:0.66;}.cls-26,.cls-4{fill:#fff;}.cls-5{fill:#ddc6c3;opacity:0.32;}.cls-6{clip-path:url(#clip-path-2);}.cls-18,.cls-19,.cls-7{fill:#c97253;}.cls-22,.cls-23,.cls-32,.cls-8{fill:#e19271;}.cls-29,.cls-9{fill:#aac9ce;}.cls-9{stroke:#fff;}.cls-11,.cls-12,.cls-13,.cls-14,.cls-15,.cls-16,.cls-17,.cls-18,.cls-19,.cls-20,.cls-21,.cls-22,.cls-23,.cls-24,.cls-25,.cls-26,.cls-32,.cls-9{stroke-miterlimit:10;}.cls-10{fill:#f4b3a2;}.cls-11,.cls-15,.cls-22{stroke:#f4b3a2;}.cls-11,.cls-12,.cls-17,.cls-32{stroke-width:3px;}.cls-12,.cls-31{fill:#9bc1b9;}.cls-12,.cls-13{stroke:#aac9ce;}.cls-13,.cls-27{fill:#5b897e;}.cls-13{stroke-width:0.75px;}.cls-14,.cls-16,.cls-17{stroke:#343947;}.cls-14{stroke-width:4px;}.cls-15,.cls-22,.cls-23,.cls-25,.cls-26{stroke-width:2px;}.cls-16{stroke-width:6px;}.cls-18,.cls-20,.cls-23,.cls-25,.cls-32{stroke:#e19271;}.cls-19,.cls-21{stroke:#c97253;}.cls-19{stroke-width:5px;}.cls-24{stroke:#ddc6c3;}.cls-26{stroke:gray;opacity:0.43;}.cls-28{fill:#343947;}.cls-30{clip-path:url(#clip-path-3);}</style><clipPath id="clip-path"><rect class="cls-1" x="-14.81" y="-3" width="1302.35" height="849.69"/></clipPath><clipPath id="clip-path-2"><rect class="cls-1" x="274.07" y="205.18" width="955.46" height="618.9"/></clipPath><clipPath id="clip-path-3"><polygon class="cls-1" points="897.91 -13.02 1340.77 -13.02 1340.77 236.02 935.47 243.14 897.91 -13.02"/></clipPath></defs><title>Artboard 1</title><g class="cls-2"><rect class="cls-3" x="-9.82" y="713.46" width="1294.63" height="119.34"/><rect class="cls-4" x="-8.42" y="-4.89" width="1291.84" height="835.9"/><rect class="cls-4" x="-7.02" y="1.78" width="1291.84" height="835.9"/><path class="cls-3" d="M1399.74,447.27H1193.9V366.4H1075.32v65.31l-27-3.11V207.78L897.43,231.4v191H822L805.8,400.61v-84l-21.56,10.89v82.42H735.72v37.33h-27l-40.43-59.21H636l-13.47-41.64H371.88V172.17H323.36V388.06H231.73l-13.48,59.21-91.64,31.1L67.27,395.52l-5.34-7.46C29.59,453.49,24.2,478.37,24.2,478.37H2V343.07L-121,118.68l4.3,280-.4,382.45h0l899.42.46,618.28-.46Z"/><path class="cls-5" d="M-121.45,556.11,16.71,569.22V488.35H135.3v65.32l26.95-3.11,150.93-6.22h75.46l16.18-21.77v-84l21.56,10.89V531.9h48.51v37.32h26.95L542.27,510h32.34l13.48-41.64H838.74V294.12h48.51V510h91.64l13.47,59.2,91.64,31.1,59.34-82.85,5.34-7.45c32.35,65.42,37.74,90.3,37.74,90.3h115.89l2.83-97.5L1401,293.25l-4.75,181.11,3.93,306.72H-117.55Z"/><g class="cls-6"><path class="cls-7" d="M953.08,698.51c-.15-.16-1.22,0-1.22,0l.41,12.21,1.68,0Z"/><path class="cls-7" d="M951.86,710.09a7.65,7.65,0,0,0-1.73,0l.06,6.52,1.67-.06Z"/><path class="cls-7" d="M982.84,711.64a5.51,5.51,0,0,1,1.47,0l.06,5.81-1.53.15Z"/><path class="cls-7" d="M980,698.51c.17-.16,1.3,0,1.3,0l-.44,12.21-1.77,0Z"/><path class="cls-8" d="M946.65,699.13c-.21.91,1.24,3,1.26,3.85,2.72.36,36,1.33,37.91.22,1.9-1.92,1.49-3.23,1.7-3.88C984.89,699.29,944.54,699.15,946.65,699.13Z"/><path class="cls-8" d="M948.51,703.53c.21,1.07,1.61,2.87,1.61,3.51,1.26.43,33.32,1.29,34.58,0a5.26,5.26,0,0,0,.89-3C983,704.73,953,704.3,948.51,703.53Z"/><path class="cls-8" d="M943.44,712.34c2.83,0,41.64,1,46.83,1a38.31,38.31,0,0,1-6-3.51c-2.51.4-32-.48-34.14-.53C948.83,710.08,943.44,712.34,943.44,712.34Z"/><path class="cls-7" d="M923.23,698.62c.14-.16,1.22,0,1.22,0l-.1,12.41-1.68.07Z"/><path class="cls-7" d="M924.58,710.39a7.11,7.11,0,0,1,1.73,0l-.06,6.52-1.67-.06Z"/><path class="cls-7" d="M893.6,711.94a5.12,5.12,0,0,0-1.47,0l-.06,5.81,1.53.14Z"/><path class="cls-7" d="M896.42,698.61c-.16-.16-1.29,0-1.29,0l.43,12.41,1.78,0Z"/><path class="cls-8" d="M929.78,699.42c.22.91-1.24,3-1.25,3.86-2.73.36-36,1.33-37.91.22-1.9-1.93-1.49-3.23-1.71-3.88C891.55,699.59,931.89,699.45,929.78,699.42Z"/><path class="cls-8" d="M927.93,703.83c-.21,1.07-1.62,2.86-1.62,3.51-1.26.43-33.32,1.28-34.57,0a5.27,5.27,0,0,1-.89-3C893.44,705,923.46,704.6,927.93,703.83Z"/><path class="cls-8" d="M933,712.64c-2.82,0-41.64,1-46.82,1a39.63,39.63,0,0,0,6.05-3.51c2.51.39,32-.49,34.14-.54C927.6,710.38,933,712.64,933,712.64Z"/><path class="cls-9" d="M783.64,110.69c-7.82,1.6-11.5,7.35-9.58,11.82s9.93-.8,8-4.15c-3.91-6.85-13.58-9.14-21.24-4.79s-11.37,15.33-6.9,21.08,11.23,7,11.69,2.72c.64-6-10.37-5.91-13,1.43s.65,15.34,8.32,16.3,20.1.32,19.46-5.11-6.05-6.39-8-2.88c-2.6,4.77-3.86,11.18,1.57,11.5s38-.32,42.81,0c5.75-4.47,6.39-15,0-16s-9.56,3-5.73,4.31,8.68-4.34,5-9.58-12.46-7-16.3-1.92-.16,9.58,4.64,4.79,7.35-14.13,3.8-20C802.13,110.24,793.57,108.66,783.64,110.69Z"/><path class="cls-9" d="M903.68,401.85c-4.63,1.81-.1,6.47,2.29,4.71,1.12-.82,6.39-5,3.73-11.93-3.1-8.12-13.44-9.11-19.39-5.28s-5.15,12.89-2,11.27,3.38-5.58-2.84-8.67a18.68,18.68,0,0,0-21.24,3.16c-5.39,5.06-6.28,16.27-2.65,19.59s9.81,2.81,7.44-.32-12.45-3.44-14.93-.93c-2.83,2.85-3.28,7.83-1.09,12.1,2.4,4.68,6.53,4.44,8.63,1.36s.15-5.1-2-4.67c-4.49.91-4.46,8.43-2.77,10.56,3.48-.38,73.09.55,73.09.55s2.28-10.53-5.08-13.94-13.84-3.88-13.43-.16,12-2.6,9.69-12.2C919.49,400,912.23,398.5,903.68,401.85Z"/><path class="cls-9" d="M561.39,434.78c-6.39,2.5-.13,8.93,3.17,6.51,1.54-1.13,8.83-6.86,5.15-16.48-4.29-11.21-18.57-12.58-26.77-7.3s-7.13,17.82-2.76,15.57,4.67-7.71-3.92-12a25.78,25.78,0,0,0-29.33,4.37c-7.45,7-8.66,22.46-3.66,27s13.55,3.87,10.28-.45-17.19-4.75-20.62-1.29c-3.91,3.95-4.53,10.83-1.51,16.72,3.32,6.46,9,6.13,11.92,1.88s.21-7-2.71-6.45c-6.19,1.25-6.16,11.64-3.83,14.58,4.82-.52,100.94.77,100.94.77s3.15-14.56-7-19.26-19.11-5.35-18.55-.23,16.52-3.58,13.37-16.83C583.23,432.19,573.2,430.15,561.39,434.78Z"/><path class="cls-9" d="M1145.17,433.45c-4.61,1.81-.09,6.45,2.29,4.7,1.11-.82,6.37-4.95,3.72-11.9-3.1-8.09-13.41-9.08-19.33-5.27s-5.14,12.86-2,11.24,3.37-5.56-2.83-8.64a18.62,18.62,0,0,0-21.18,3.15c-5.37,5-6.25,16.22-2.64,19.53s9.79,2.8,7.42-.32-12.41-3.43-14.89-.93c-2.81,2.85-3.27,7.82-1.08,12.07,2.39,4.66,6.51,4.42,8.6,1.36s.16-5.09-2-4.66c-4.48.91-4.45,8.4-2.77,10.53,3.48-.38,72.88.55,72.88.55s2.27-10.51-5.07-13.91-13.79-3.86-13.38-.16,11.92-2.59,9.65-12.15C1160.94,431.58,1153.7,430.11,1145.17,433.45Z"/><path class="cls-9" d="M665.7,307.72c-3.21,2.32-1.57,4.74.78,3.61,4.69-2.24,2.82-7.94-2.09-10.4-7.35-3.67-13.5-1.65-20,.6-4.09,1.41-7.54,7.45-3.92,8,4.54.74.24-9.91-7.77-12-9.12-2.36-18.83.39-24.4,3.77s-10.16,11.86-6.13,15.19c1.33,1.11,4.74-.54,1.61-2.29s-6-3.28-9.78-2.07-5.77,6.13-4,8.86c2,3,4.88,2.37,8.1.94,1.7-.75.16-2.72-1.19-2-2.48,1.4-3.54,3.39-3,5.64-.38.47,102.9,2.56,102.9,2.56s2.29-3.51-5.19-9c-8.32-6.07-15-4.51-12.82-.38,1.23,2.26,9.85,2.6,5.66-8.1C682.34,305.3,674.47,301.41,665.7,307.72Z"/><path class="cls-9" d="M1032.85,316.53c-3.56,2.57-1.75,5.24.86,4,5.18-2.48,3.11-8.8-2.32-11.51-8.13-4.07-14.94-1.83-22.19.66-4.52,1.56-8.34,8.24-4.34,8.89,5,.81.27-11-8.59-13.27-10.1-2.61-20.85.44-27,4.18S958,322.61,962.47,326.3c1.47,1.22,5.25-.61,1.79-2.54s-6.58-3.63-10.82-2.29-6.39,6.78-4.41,9.8c2.2,3.36,5.4,2.63,9,1,1.88-.83.17-3-1.33-2.17-2.74,1.55-3.91,3.76-3.26,6.24-.42.52,113.89,2.84,113.89,2.84s2.53-3.89-5.75-9.93c-9.2-6.72-16.66-5-14.18-.42,1.35,2.5,10.9,2.88,6.25-9C1051.25,313.86,1042.55,309.55,1032.85,316.53Z"/><path class="cls-9" d="M480.76,224.92c-4.67,3.37-2.3,6.89,1.13,5.26,6.82-3.26,4.1-11.57-3-15.14-10.7-5.34-19.64-2.4-29.17.88-5.95,2-11,10.83-5.7,11.68,6.6,1.07.35-14.42-11.3-17.44-13.28-3.43-27.41.58-35.51,5.49s-14.78,17.26-8.93,22.11c1.94,1.6,6.91-.79,2.35-3.33s-8.65-4.78-14.22-3-8.4,8.91-5.8,12.89c2.9,4.41,7.11,3.45,11.79,1.37,2.47-1.1.23-4-1.74-2.85-3.6,2-5.14,4.93-4.29,8.2-.55.68,149.72,3.73,149.72,3.73s3.33-5.11-7.55-13.06c-12.11-8.83-21.9-6.55-18.65-.55,1.78,3.29,14.33,3.79,8.23-11.79C505,221.4,493.51,215.74,480.76,224.92Z"/><path class="cls-9" d="M923.33,410.87c-6.08,1.25-8.94,5.71-7.45,9.19s7.72-.62,6.23-3.23c-3-5.32-10.55-7.1-16.51-3.72s-8.84,11.92-5.36,16.39,8.73,5.46,9.08,2.11c.5-4.64-8.06-4.6-10.06,1.11s.5,11.92,6.46,12.67,15.63.25,15.13-4-4.7-5-6.19-2.23c-2,3.71-3,8.69,1.22,8.94s29.55-.25,33.28,0c4.47-3.48,5-11.67,0-12.42s-7.43,2.36-4.45,3.36,6.74-3.38,3.85-7.45-9.69-5.47-12.67-1.49-.12,7.45,3.6,3.72,5.72-11,3-15.52C937.7,410.52,931.05,409.29,923.33,410.87Z"/><path class="cls-7" d="M860.79,629.32c.14.06,17.84,12.38,19.63,15-3.76,1.83-12.37,2.09-13,2.09S860.79,629.32,860.79,629.32Z"/><path class="cls-7" d="M851.63,611.85c1.78,4.54,17.5,14.49,22.12,20.5a35.16,35.16,0,0,1-9.87,2.7C863.29,635.06,851.63,611.85,851.63,611.85Z"/><path class="cls-7" d="M846.85,604.34s16.77,12.19,20,15.91c-4,1.59-9.17.82-10.32.85C855.63,621.13,848.62,607.39,846.85,604.34Z"/><path class="cls-7" d="M839.08,593.82s14.24,8.57,19.39,14.1a18,18,0,0,1-9,1.79C848.92,609.7,839.08,593.82,839.08,593.82Z"/><path class="cls-7" d="M827.86,580.87s15.82,8.29,22.07,14.44a25.86,25.86,0,0,1-8.51,2.89C840.83,598.2,827.86,580.87,827.86,580.87Z"/><path class="cls-7" d="M792.8,630.76c-.14.06-17.84,12.38-19.63,15,3.76,1.84,12.37,2.09,13,2.09S792.8,630.76,792.8,630.76Z"/><path class="cls-7" d="M802,613.3c-1.78,4.53-17.51,14.48-22.12,20.49a35.68,35.68,0,0,0,9.87,2.71C790.3,636.5,802,613.3,802,613.3Z"/><path class="cls-7" d="M806.74,605.78S790,618,786.74,621.7c4,1.58,9.17.81,10.32.84C798,622.57,805,608.84,806.74,605.78Z"/><path class="cls-7" d="M814.51,595.27s-14.24,8.56-19.39,14.09a17.84,17.84,0,0,0,9,1.79C804.67,611.15,814.51,595.27,814.51,595.27Z"/><path class="cls-7" d="M825.73,582.32s-15.82,8.28-22.07,14.44a26,26,0,0,0,8.51,2.88C812.76,599.64,825.73,582.32,825.73,582.32Z"/><path class="cls-10" d="M781.33,648.71c0,7.09-2.07,62.65,0,72.11,4.43,5.32,88.66,5.32,94,3.55s4.13-15.08,3.54-20.4-3.84-51.42-10.34-56.74-74-6.58-81.09-3S781.33,648.71,781.33,648.71Z"/><path class="cls-10" d="M781.33,648.71c4.16-7.8,74.47-5.9,87.18-1.48-.59-7.39-17.63-45.42-38.61-65.61C823.14,575.12,788.71,633.93,781.33,648.71Z"/><path class="cls-8" d="M815.32,675.55l33.07-.77,5.72,50.65-38.79-.21Z"/><path class="cls-8" d="M825.66,588.72c4.67-3.34,35.85,51.67,37,56.67-10.93-3.23-70.13-2.58-74.27-.23C788.42,642.19,813.24,597.58,825.66,588.72Z"/><circle class="cls-7" cx="827.13" cy="621.22" r="15.96"/><path class="cls-8" d="M825.56,605.27s-.64,31.33-.64,33.2a17.29,17.29,0,0,1,5-.45c-.09-1.85-.17-31.47-.36-32.75C828.35,605.46,826.84,604.58,825.56,605.27Z"/><path class="cls-8" d="M844.37,619.11H811.08c-.83,3.1-1,3-.87,4.2,1.85-.09,33.24.2,34.52,0C844.53,622.13,845.06,620.39,844.37,619.11Z"/><path class="cls-7" d="M795.7,658c-2.26,3.84-2.36,22.45-2.26,26.15,5.42,1,15.86-.54,18.62-1.33,2.17-2.85-.29-22.26-.88-25.61C806.74,656.49,800,657.67,795.7,658Z"/><line class="cls-11" x1="801.42" y1="653.93" x2="803.18" y2="688.51"/><line class="cls-11" x1="789.87" y1="674.52" x2="816.2" y2="670.72"/><path class="cls-7" d="M849.59,657a3,3,0,0,0-.14.36c-1.36,4.06,1.23,19.86,1.33,23.1s15.66.49,16-.49-1.87-24.63-2.36-25.22c-2.66.89-9.27.87-14.83,2.36"/><path class="cls-12" d="M790.68,711.9c-3.69-1.64-7.19-12.22,3.15-13.5s10.25,3.06,9.85,7.88-.19,8.77-3.84,8.08-1.38-6.4.79-6,5.91-.39,6.8,3.94,1.53,9.66-1.69,11.23-18.8,1-21.66-1-5-10.64-1.77-13.6,6.3-4.63,8.37-2.56S793.34,713.08,790.68,711.9Z"/><path class="cls-13" d="M800.74,714.61c-3.7-1.64-7.19-12.21,3.15-13.49s10.25,3,9.85,7.88-.19,8.76-3.84,8.08-1.38-6.41.79-6,5.91-.4,6.8,3.94,1.52,9.65-1.69,11.23-18.8,1-21.66-1-5-10.64-1.77-13.59,6.3-4.63,8.37-2.56S803.4,715.79,800.74,714.61Z"/><path class="cls-12" d="M871.27,702.38c-4.32-.09-5.42,2.26-6.11,5.71s-.39,7.78,1.67,3.84,3-10.34-2-8.27-7.45,4-6,8.47,2.17,9.65,6.9,10.93,9.46,5.13,13.59,0,4.34-12,0-13.49-7.43.1-6.47,3,5.88,1.28,6.18-.88S880.92,702.57,871.27,702.38Z"/><path class="cls-13" d="M860.75,705.92c4.31-.09,5.41,2.26,6.1,5.71s.4,7.78-1.67,3.84-3-10.34,2-8.27,7.45,4,6,8.47-2.17,9.65-6.9,10.94-9.45,5.12-13.59,0-4.34-12,0-13.5,7.43.1,6.47,3-5.88,1.28-6.18-.88S851.09,706.12,860.75,705.92Z"/><polygon class="cls-7" points="821.72 686.63 843.29 686.09 846.66 725.41 822.65 725.05 821.72 686.63"/><line class="cls-11" x1="856.49" y1="653.34" x2="859.35" y2="689.69"/><line class="cls-11" x1="845.26" y1="668.71" x2="868.51" y2="668.61"/><path class="cls-8" d="M347.68,390.76c8.4-3,76.4-7.24,86.7,0,6.41,19.77-6.68,216.62-7.11,225.37,17.31.34,94.32-1.76,105.6-2.13,6.82,24.86-1.49,108.66-1.49,108.66s-172.67.56-183.7.56C340,704.84,345.91,396.89,347.68,390.76Z"/><path class="cls-8" d="M347.68,394.5c8.4-3,76.4-7.24,86.7,0,6.41,19.77-6.68,216.63-7.11,225.37,16.3,1,90.85-1.5,104.11-3.17,12.43,22.83,0,109.7,0,109.7s-172.67.56-183.7.56C340,708.58,345.91,400.63,347.68,394.5Z"/><path class="cls-7" d="M469.05,726.28c-.29-5.73.07-55.64.07-55.64-.38,0,16.45-1,25.35,0,1.65,14.58,3.92,51.08,2.81,55.69C491.5,727.81,469.05,726.28,469.05,726.28Z"/><line class="cls-14" x1="939" y1="710.92" x2="936.07" y2="643.71"/><path class="cls-14" d="M920.6,655.91c-.46,2.46,5.61,18.08,16.94,19.8"/><path class="cls-14" d="M954.48,653.05c.46,2.46-5.62,18.08-16.94,19.81"/><path class="cls-14" d="M930.93,659.09c-.18,1,2.19,7,6.61,7.73"/><path class="cls-13" d="M908,602.66c-5.25,4-8.2,17.8-5.4,24.2s10.6,8.21,11.81,5.8,2.2-5.2-4.21-6.4-16.93,8-11.4,15.41c3.55,4.73,7.84,6.26,13.61,6.1a23.37,23.37,0,0,0,6.4-1.1c8.2-2.6,6.8-9.2,2.8-7.4s-13.2,11.8-9.2,15.8,15,7.4,21.2,2.8,12-10.6,7.2-12.4-9,.69-6.4,5.2,11.2,11.6,20.21,6.2,9.16-12.36,7.8-14.4c-4.74-7.13-14.61-10.61-12.41-4.8s17,5.72,20.41,1.8c4-4.6,8-17-.6-21.21s-15.4,4.4-10.4,4.4,10.4-4.4,11.4-10.4c1-6.24-2.8-10.2-10.2-12.6-8.74-2.84-24.21,2.2-25.61,9s11,11.6,12,5.6S933.75,583.05,908,602.66Z"/><line class="cls-14" x1="354.28" y1="737.24" x2="351.68" y2="677.76"/><path class="cls-14" d="M338,688.56c-.41,2.17,5,16,15,17.52"/><path class="cls-14" d="M368,686c.41,2.17-5,16-15,17.53"/><path class="cls-14" d="M347.14,691.38c-.16.84,1.93,6.23,5.84,6.83"/><path class="cls-13" d="M326.84,641.43c-4.65,3.54-7.26,15.76-4.78,21.42s9.38,7.26,10.44,5.14,1.95-4.61-3.72-5.67-15,7.11-10.09,13.63c3.14,4.19,6.94,5.55,12,5.4a20.57,20.57,0,0,0,5.67-1c7.25-2.3,6-8.14,2.48-6.55s-11.68,10.44-8.15,14,13.28,6.55,18.77,2.47,10.62-9.38,6.37-11-7.94.61-5.66,4.6,9.91,10.27,17.88,5.49,8.1-10.94,6.9-12.75c-4.2-6.31-12.92-9.38-11-4.25s15.07,5.06,18.06,1.6c3.51-4.07,7.08-15-.53-18.77s-13.63,3.9-9.21,3.9,9.21-3.9,10.1-9.21c.92-5.52-2.48-9-9-11.15-7.73-2.51-21.42,1.94-22.66,8s9.73,10.27,10.62,5S349.63,624.08,326.84,641.43Z"/><path class="cls-10" d="M408,399.76c4-1.77,11.29.38,15,.38.32,4.94-2.22,30.07-2.82,36.05-4.51.75-10.47,0-12.57.45C405.27,431.26,408,399.76,408,399.76Z"/><path class="cls-10" d="M383,435.78c4,1.72,12.22-.37,15.93-.37.33-4.82-.29-29.81-.88-35.65-4.52-.73-12.41.43-14.5,0C381.17,405,383,435.78,383,435.78Z"/><path class="cls-10" d="M360.38,399.76c4-1.77,10.79-.7,14.5-.7.33,4.94-2.24,31.15-2.84,37.13-4.52.75-10.47,0-12.57.45C357.08,431.26,360.38,399.76,360.38,399.76Z"/><path class="cls-10" d="M372.13,448c-4-1.77-9.46.38-13.17.38-.33,4.93-.63,30.48,0,36.47,4.51.75,10.84,0,12.93.47C374.25,479.89,372.13,448,372.13,448Z"/><path class="cls-10" d="M384.32,447.92c4-1.77,10.78-1.49,14.5-1.49.32,4.94.6,32.64,0,38.62-4.51.75-13.16-.7-15.25-.25C381.17,479.41,384.32,447.92,384.32,447.92Z"/><path class="cls-10" d="M421.34,447.9c-4.27-1.86-8.71.42-12.4.43-.32,4.93-.63,30.74,0,36.72,4.51.75,10.32-.7,12.42-.25C423.72,479.41,421.34,447.9,421.34,447.9Z"/><path class="cls-10" d="M382.67,540.79c-4,1.77-12-.31-15.74-.31-.32-4.93.83-30.51,1.43-36.5,4.51-.75,11.87.45,14,0C382.34,510.5,382.67,540.79,382.67,540.79Z"/><path class="cls-10" d="M410.54,505.17c-5.05,0-7.65.29-11.37.29-.32,4.94,2.22,30.07,2.82,36.05,4.51.75,8.83,0,10.93.45C415.31,536.58,410.54,505.17,410.54,505.17Z"/><path class="cls-10" d="M396.2,561.25c3-.66,10.75.38,14.47.38.32,4.94-2.23,30.07-2.82,36-4.52.75-10.48,0-12.57.45C392.89,592.75,396.2,561.25,396.2,561.25Z"/><path class="cls-10" d="M366.91,560.05c4-1.77,12.21.38,15.93.38.32,4.93-2.23,30.07-2.82,36.05-4.52.75-10.48,0-12.57.45C365.06,591.54,366.91,560.05,366.91,560.05Z"/><path class="cls-15" d="M429.11,592.56c11-3.33,82.11-3,102.27-.77,0,10.56,2.15,28.17,2.15,28.17"/><line class="cls-15" x1="438.08" y1="591.23" x2="438.08" y2="619.96"/><line class="cls-15" x1="449.96" y1="590.66" x2="448.15" y2="619.96"/><line class="cls-15" x1="462.78" y1="590.36" x2="462.04" y2="619.79"/><line class="cls-15" x1="476.01" y1="590.08" x2="476.01" y2="619.42"/><line class="cls-15" x1="489.51" y1="590.22" x2="490.33" y2="618.95"/><line class="cls-15" x1="502.14" y1="590.6" x2="502.94" y2="618.95"/><line class="cls-15" x1="518.39" y1="593.07" x2="519.21" y2="621.9"/><path class="cls-13" d="M995.32,544.94c-11.77,2.69-19,12-20.45,26.31s1.93,30.11,7.22,27.89,11.06-6.34,4.57-14.26-18.52.31-20.2,16.16,3.12,31.69,14.43,27.57,2.88-14.89-2.17-9.82-7.93,22.82,5,29.47,32,7.93,39.69-12,0-37.71-7.94-33.28-1,11.41,4.81,7.61,13.47-10.15,8.66-23.3-11.06-20.76-15.63-13.15,3,17.57,6.49,9.51,6.49-15.14-.72-24.21S1007.82,542.09,995.32,544.94Z"/><line class="cls-14" x1="1002.53" y1="567.76" x2="1005.9" y2="715.77"/><line class="cls-14" x1="992.19" y1="619.5" x2="1003.93" y2="629"/><line class="cls-14" x1="992.41" y1="595.27" x2="1004.14" y2="604.77"/><line class="cls-14" x1="991.96" y1="576.61" x2="1003.69" y2="586.11"/><line class="cls-14" x1="1009.36" y1="576.19" x2="1003.62" y2="586.53"/><line class="cls-14" x1="1013.02" y1="594.13" x2="1003.51" y2="603.57"/><line class="cls-14" x1="1013.53" y1="619.53" x2="1004.01" y2="628.97"/><path class="cls-13" d="M1171.68,543.92c-8.66,3.88-13.58,12.45-11,16.41s12.17,8.2,9.62,3.11-2.73-5.38-10.28.85-10.65,25.18-2.73,28.85,11.6,4,12.16,0-4.26-4.24-7.27-1.69-11.12,4.24-7.16,16.12,11.32,23.48,26.31,21.22,27.45-12.73,29.43-29.71-5.1-35.92-15.28-36.49-17.26,12.17-11,13,11.88-8.48,6.79-16.12-7.7-6.23-9.37-2,6.54,9,10.5-.85S1179.88,540.24,1171.68,543.92Z"/><path class="cls-16" d="M1181.83,610.12s0,106.09,0,106.09"/><path class="cls-16" d="M1173.77,623.7c0,2.54-2.7,14.14,8.07,13.58"/><path class="cls-16" d="M1189.91,606.3c0,2.54,2.69,14.14-8.08,13.58"/><path class="cls-13" d="M546,511.19c-10.94,4.91-17.16,15.74-13.94,20.74s15.37,10.37,12.15,3.94-3.45-6.8-13,1.07-13.47,31.83-3.46,36.47,14.67,5,15.38,0-5.39-5.36-9.19-2.14-14,5.36-9,20.38,14.31,29.68,33.26,26.82,34.69-16.09,37.19-37.55-6.44-45.41-19.31-46.13-21.81,15.38-14,16.45,15-10.72,8.59-20.38-9.73-7.87-11.84-2.5,8.26,11.44,13.27-1.08S556.41,506.54,546,511.19Z"/><path class="cls-16" d="M558.88,594.87s0,134.1,0,134.1"/><path class="cls-17" d="M548.68,612c0,3.21-3.4,17.88,10.22,17.16"/><path class="cls-17" d="M569.09,590c0,3.22,3.4,17.88-10.21,17.16"/><polygon class="cls-7" points="361.72 590.47 384.28 590.47 382.59 597.94 363.25 597.94 361.72 590.47"/><polygon class="cls-7" points="390.69 590.79 413.25 590.79 411.56 598.27 392.23 598.27 390.69 590.79"/><polygon class="cls-7" points="363.5 535.1 386.05 535.1 384.36 542.58 365.03 542.58 363.5 535.1"/><polygon class="cls-7" points="397.29 535.1 419.85 535.1 418.16 542.58 398.82 542.58 397.29 535.1"/><polygon class="cls-7" points="355.64 477.47 377.76 477.47 376.11 484.8 357.15 484.8 355.64 477.47"/><polygon class="cls-7" points="356.29 429.87 378.4 429.87 376.75 437.19 357.79 437.19 356.29 429.87"/><polygon class="cls-7" points="379.86 429.87 401.98 429.87 400.32 437.19 381.37 437.19 379.86 429.87"/><polygon class="cls-7" points="403.94 429.87 426.06 429.87 424.41 437.19 405.45 437.19 403.94 429.87"/><polygon class="cls-7" points="379.41 478.41 401.97 478.41 400.28 485.88 380.95 485.88 379.41 478.41"/><polygon class="cls-7" points="404.2 478.41 426.76 478.41 425.07 485.88 405.74 485.88 404.2 478.41"/><path class="cls-10" d="M616.86,536.6c-3.54,14.66-.72,177.27,0,187.25,18.51,3.51,130.42,3.72,135.88,2.46,1.18-14.93-9.16-182.08-9.06-187.52C726.51,536.67,624.32,535.86,616.86,536.6Z"/><path class="cls-7" d="M617.33,519.74c-1,2.66.28,10.13-1.58,17.25,10-1.35,123.93,2.25,128.08,2.32-1.69-8.67-1.18-12.74-1.59-15.46C731.21,522.74,625.61,519.89,617.33,519.74Z"/><path class="cls-8" d="M613,567.44l132.23.72,22.15,17s-165.31.67-166,.2S613,567.44,613,567.44Z"/><path class="cls-18" d="M602,585.52c-.67.33-.94,11.86,5.63,13.5s14.46-.4,13.81-8.8c-.41-5.13-7.49.83-4.07,6.6,2.66,4.5,6.67,7.31,11.32,5.53s14.47-11.72,8.17-13.54c-6.47-1.86-5.33,14.78,3.5,13.42s14.2-8.91,12.69-11.24c-2.44-3.75-5-1.82-6.38.46s-2.52,8,3.83,9.44,25.9-11.42,15.18-12.06c-6.31-.38-2.44,13,6.37,12.45s11.66-12.3,8.36-12-4.95,11.41,2.6,11,13.7-12.2,11.06-12.61.42,13.33,6.38,12.42,9.94-14.69,6.41-14.08.16,15.55,8.11,13.84,9.65-10.3,6.37-11.38-3.49,10.08,2.44,10.69,9.53.05,11.06-3.57c.53-1.23,1.29-5.1-2-5.16s-4.14,3.92-3.55,5.37c.5,1.21,1.42,2.43,6.47,3.58,6.78,1.54,15.55-7.53,14.71-9.91s-4.9-3.4-6.06-.33-.17,8.56,2,9.42,7.27-.89,11.06-3.18,7.45-8.78,3.72-9.07-4.63,3-4.91,4.32-.62,7.42,3.78,7.5,8.85-10.49,6.27-13.58"/><path class="cls-7" d="M630.32,563.47c6,.41,15.95.42,17.31.45.79-6.1.35-18.93-7.12-19.07S631.17,554,630.32,563.47Z"/><path class="cls-7" d="M663.68,564.54c5.4.54,16.16.64,17.63.59.5-6.53.77-20-7.3-19.76S664.06,554.4,663.68,564.54Z"/><path class="cls-7" d="M704,566.18c5-.09,14.94-1.16,16.29-1.37-.26-6.15-1.53-18.79-8.91-17.65S703.19,556.67,704,566.18Z"/><line class="cls-15" x1="640.75" y1="541.46" x2="640.3" y2="566.26"/><line class="cls-15" x1="627.16" y1="554.01" x2="651.39" y2="554.45"/><line class="cls-15" x1="673.96" y1="543.45" x2="673.53" y2="566.86"/><line class="cls-15" x1="712.36" y1="545.39" x2="711.96" y2="567.55"/><line class="cls-15" x1="661.75" y1="555.52" x2="685.11" y2="555.36"/><line class="cls-15" x1="701.24" y1="557.23" x2="720.43" y2="557.44"/><path class="cls-7" d="M623.46,630.12l54.68-.58s-5.33,8.33-7.64,10.55c-7.71.54-41,1.07-45.77.76C623.76,638.11,624.11,631.49,623.46,630.12Z"/><path class="cls-7" d="M635.48,712.43c11,1.46,27.75.79,32.29.84.88-12.9,0-54-1.59-58.84-2.66-8-11.34-9.54-17.06-8.62-5.18.82-12.66,6.7-13.77,16.67S635.48,712.43,635.48,712.43Z"/><path class="cls-8" d="M622,710.55c-.76,4.75,1.23,7.5-.19,10.87,4.75.09,53.45.52,56.62,1,1.87-3.37.15-8.61.19-10.87C675,712.64,628.57,711.35,622,710.55Z"/><path class="cls-7" d="M710.36,613.63c-8.57,1.26-12.06,5.22-14.76,16.72s5,75.08,4.21,80.5c8.81,1.3,33.76-.71,36.48-.34-.32-7.38-4.57-72.93-7.86-79.34S721.25,612,710.36,613.63Z"/><path class="cls-15" d="M710.36,613.63c0-.68,7.22,101.4,7.22,101.4"/><line class="cls-15" x1="690.41" y1="639.32" x2="735.97" y2="637.74"/><line class="cls-15" x1="688.99" y1="657.24" x2="734.55" y2="655.67"/><line class="cls-15" x1="691.28" y1="680.99" x2="736.85" y2="679.42"/><circle class="cls-8" cx="652.38" cy="664.53" r="9.15"/><circle class="cls-10" cx="652.58" cy="664.54" r="6.58"/><path class="cls-13" d="M645.43,622c2.2,1.4,2.38-1.6,1.37-4.61-1.06-3.17-2.86-5.48-7.25-5.11-2,.16-5,2.59-6.08,4.65-1.93,3.73-.26,6.63,2.11,5.82s-.7-9-5.69-9.09-10.25,2.53-10.37,9.23c0,2.35,1.57,7.8,5.69,7.74l54.51-.53s4.25-.58,2.16-5.85c-1.89-4.76-7.8-5.48-9.88-3s.23,4.06,1.88,3.21c4.79-2.46,3.13-6.91-1.15-7.9s-9.53.57-11,2.76,1.55,4.88,3.82,1.82c3.59-4.85-.71-10.58-5.48-10.27s-9,3.68-9.78,7.53,3.14,6.79,5.28,5.1c4-3.15-3.89-9.11-6.85-8.27C646.61,615.86,642.41,620,645.43,622Z"/><path class="cls-13" d="M625.55,630.09c0-.68,1.9,18,.28,20s-8.29-.13-5.1-1.43,8.72.41,5.69,4-3.43,3.32-4.54,2.73c-3.25-1.74,5.41-4.49,4.9,1.37-.31,3.58-1.89,9.52-4.83,6.89-1.07-.95,1-3.12,2.95-2.66,2.15.48,5.85,5,1.66,7.75"/><path class="cls-13" d="M678.17,627.4c0-.68,1.42,8.87-.2,10.88s-8.63,1.21-5.44-.1,8.48,2,6.44,4.43c-3,3.56-6.93,8.29-7.41,4.64s8-6.25,6.75-2.86-1.83,10.63-5.09,8.39,4.44-4.69,4.54-2.49,3.8,6.82.29,8.38"/><line class="cls-19" x1="619.05" y1="567.63" x2="611.17" y2="588.81"/><line class="cls-19" x1="632.05" y1="567.84" x2="626.75" y2="587.95"/><line class="cls-19" x1="646.57" y1="568.46" x2="644.96" y2="588.34"/><line class="cls-19" x1="660.89" y1="568.31" x2="661.78" y2="588.53"/><line class="cls-19" x1="670.94" y1="567.76" x2="672.41" y2="598.67"/><line class="cls-19" x1="681.94" y1="567.81" x2="687" y2="587.59"/><line class="cls-19" x1="694.89" y1="568.45" x2="701.27" y2="586.72"/><line class="cls-19" x1="707.59" y1="567.95" x2="715.49" y2="587.5"/><line class="cls-19" x1="723" y1="568.04" x2="731.11" y2="587.56"/><line class="cls-19" x1="738.86" y1="568.12" x2="751.92" y2="585.31"/><line class="cls-20" x1="625.74" y1="630.5" x2="627.71" y2="640.93"/><line class="cls-20" x1="630.06" y1="630.05" x2="631.26" y2="640.94"/><line class="cls-20" x1="636.21" y1="630.13" x2="636.21" y2="640.92"/><line class="cls-20" x1="643.86" y1="629.91" x2="643.66" y2="640.83"/><line class="cls-20" x1="652.3" y1="629.82" x2="650.27" y2="640.72"/><line class="cls-20" x1="658.69" y1="630.01" x2="655.81" y2="640.61"/><line class="cls-20" x1="666.32" y1="630.02" x2="661.12" y2="640.47"/><line class="cls-20" x1="671.58" y1="630.03" x2="666.59" y2="640.29"/><line class="cls-21" x1="652.62" y1="651.58" x2="652.17" y2="676.46"/><line class="cls-21" x1="640.99" y1="663.81" x2="664.19" y2="664.23"/><path class="cls-8" d="M696.07,702.91c-.48,4.76,1.06,7.47.06,10.87,3.57,0,40.12-.7,42.5-.26,1.34-3.41-.06-8.61-.07-10.88C735.85,703.79,701,703.56,696.07,702.91Z"/><line class="cls-15" x1="429.11" y1="630.75" x2="384.28" y2="726.96"/><line class="cls-15" x1="429.11" y1="619.96" x2="377.26" y2="727.27"/><line class="cls-15" x1="429.11" y1="592.56" x2="429.11" y2="726.75"/><line class="cls-15" x1="429.11" y1="619.96" x2="533.53" y2="619.96"/><path class="cls-15" d="M450,626.54c-.25.55-.11,5.13,4.32,4.12,6.67-1.53,5.36-10.7-.92-10.7s-10.76,3.77-12.51,12.09c-2.22,10.6-7.67,12.45-10.37,9.21-2.49-3,1-7,3.14-6.49,3,.75.86,3.35.86,3.35"/><path class="cls-15" d="M515.49,627.08c.25.55.11,5.12-4.32,4.11-6.67-1.52-5.36-10.69.92-10.69s10.76,3.77,12.51,12.09c2.22,10.6,7.67,12.45,10.37,9.21,2.49-3-1.05-7-3.14-6.5-3,.76-.86,3.36-.86,3.36"/><polygon class="cls-8" points="1086.44 729.48 1096.34 710.96 1115.95 711 1125.4 728.85 1121.06 658.92 1079.95 660.05 1086.44 729.48"/><path class="cls-22" d="M1021.11,514.86c4,8.69,7.12,15.77,7.12,15.77l9.56,183,48.58,15.11-5.71-68.8,39.76-1.09,3.53,69.92,27.22-15.07.14-170.67,9.09-16.45-25.24-30.86-80.53-4.16Z"/><polygon class="cls-10" points="1066.22 514.78 1074.55 611.79 1080.66 659.96 1120.41 658.87 1121.67 519.04 1066.22 514.78"/><path class="cls-7" d="M1040.1,589.26c5.18,0,14.69-1.79,17.07-2.47,1.1-7.76-.53-42.27-8.41-43.89S1037.54,576.91,1040.1,589.26Z"/><path class="cls-7" d="M1144.14,586.89a60.06,60.06,0,0,1-13.09-2.64c-.64-7.06,1.57-38.24,7.69-39.52S1146.46,575.78,1144.14,586.89Z"/><path class="cls-8" d="M1085.75,581.2c7.15.39,22.23.57,23.88.74-.16-16.18-5.67-52.62-15-51S1080.43,556.83,1085.75,581.2Z"/><path class="cls-8" d="M1089.36,648.59c5.63.2,17.53.21,18.83.31.17-9.85-3.5-32-10.91-30.92S1085.62,633.8,1089.36,648.59Z"/><path class="cls-7" d="M1051.19,638.41s16.64-3.15,19.88-3.83c1.93,4.12,8,77.7,7.12,81.36-5.83-1.39-20.67-3.94-23.93-6C1053.61,700.79,1053.33,647.33,1051.19,638.41Z"/><path class="cls-23" d="M1059.47,636.83c.06,3.53,5.33,67.74,4,76"/><path class="cls-23" d="M1053.39,678.17c.43,0,17.09-2.4,22.28-2.91"/><path class="cls-7" d="M1124.19,636.09c.2,6.62,5.43,67.19,5.2,72.67,3-1.36,10.59-3.17,14.27-6.13,2.4-8.45-2-65.32-2-69.11C1139.1,634.53,1128.73,635.41,1124.19,636.09Z"/><path class="cls-23" d="M1132.79,635c-.06,6.46,6.45,63.12,5.07,70.65"/><path class="cls-23" d="M1127.08,674.53c5.08-1.77,7.2-3.76,16.58-6.47"/><path class="cls-10" d="M1026.45,602.48c3.22,8,6.47,17.95,6.47,17.95l40.59-8.58,46.21,1.84,31.73,7.23L1164,602.41l-41.8-12.94L1069,588.42Z"/><path class="cls-7" d="M1093.86,671.37l2.48,39.59,19.61,0c-.15-11.68-2.63-39.63-2.63-39.63Z"/><polyline class="cls-24" points="1028.38 530.51 1065.18 514.84 1120.63 519.1 1151.45 543.17"/><polyline class="cls-11" points="1023.81 520.28 1057.7 498.59 1133.16 501.76 1158.23 530.94"/><polyline class="cls-11" points="1025.88 524.89 1062.05 506.38 1127.61 511.15 1154.44 537.77"/><polyline class="cls-25" points="1029.07 609.33 1070.47 594.96 1120.99 595.02 1158.28 609.32"/><polyline class="cls-25" points="1031.83 617.17 1071.83 603.29 1120.91 603.29 1154.25 616.78"/></g><rect class="cls-26" x="-14.81" y="-3" width="1299.91" height="852.93"/><rect class="cls-3" x="-12.54" y="728.86" width="1300.07" height="117.83"/><path class="cls-27" d="M1040.61-15.08c-16.49,10.18-44.61,47.94-52.78,64,10.94-.07,24,1.31,34.29-2.31-9.4,8.94-70.58,56.1-67.57,104.88,17.72-3.08,36.91-8.25,41.3-14.49-7.94,6.86-24.89,35.37-23.89,51.63,15.34-6.32,22.12-9.32,26.51-15.57-3.47,11.56.16,21.89,5.55,31.91,14.72-9.87,22.27-29.44,26.66-35.68-4.08,8-12.79,31.44,2.47,56.17,13.87-4.24,29.82-7,34.44-22.42.93,5.31,6.32,15.33,16.11,19.11,9.09-10.71,24.27-38.92,25.35-53.71.46,23.65,5.63,42.84,14.26,50.47,6.47-4.78,19.11-16.11,21.11-25.59.93,5.32,8.87,40.46,17.8,49.86,14.41-11.64,34.68-31.6,39.53-56.18-.23,9.17,11.3,23.85,27.78,32.85,12.31-14.83,29.25-40.94,20.23-61.28,6.7,28,8.25,36.91,14.8,43.07,7.62-8.63,17.26-26.74,13.63-37.06,4.78,6.47.08,52.93,7.87,66.19,12.33-13.1,37.29-37.53,33-51.4,7.79,13.25,16.18,35.92,15.41,52.48,7.94-6.85,6.25-38.75,7.59-70.06-9.09-31.29-5.36-80.44-34.72-133.76-7.46-13.56-50.86-40.46-50.86-40.46S1204.27-13,1040.61-15.08Z"/><path class="cls-28" d="M1113.2,166c2.7,19.79,22.48,77.12,59.81,84.59,10.8,10.34,20.69,9.4,31.93,38.19s22.49,97.14,15.3,137.17-56.67,153.81-70.61,201.93-11.25,111.53-11.7,146.61c13.27,1.65,58.92,4.5,58.92,4.5,1.12-7,.45-131.32,11.92-166s25.63-121,45.87-154.49,24.74-84.1,6.07-134-15.72-63.59-4-64.09c20.84-.88,53-18,53.22-44.95s5.55-20.77,12.29-21.89c7.65-3.15,22.42,5.23,19.94-31.87-1.12.67-7.19,0-7.19,0s4.95,19.56-2.7,25-17.17,1.14-17.84-.89c-3.82-1.35-2.17-22.5-.6-30.6-4.72.45-7-2-8.54-1.34,2,10.79,4.46,66.93-9.32,81.37-7.76,8.13-31.61,18.65-46.6,18,19.78-7.78,54.34-44.54,53-94.23-2.47,1.35-5.62-.9-6.52.9.45,3.82-2,52.91-38.9,80.87-13.61,10.32-19.09,15-18.19,25.14s3.58,36.05,13,59.33c10.79,26.68,12.38,95.67,4.51,102.19s-16.86.51-17.54-5.34-1.79-87.7-19.56-130.65-30.13-34.18-25-39.57,20.06,5,30.58-1.31c11.25-6.75,22-20,24.29-30.13,3.6,0,26.08-7.2,34.63-30.58s6.29-46.59,8.32-54c-4,2.69-5.17,4.27-8.1,4-.67,4.5,8.32,60-29.9,73.62-20.24,4.23,10.56-61.7,14.84-70.47.67.9-1.13-8.77-1.13-8.77l-2.25,1.58S1237.27,236.7,1222,243.14c-17.54,7.41-27.2-9.53-26.08-19s6.75-55.23,12.82-70.07a22.44,22.44,0,0,1-7.42,7.42s-21.14,72.45-6.75,81.62c-12.37-.9-20.91,7.25-37.78-7.82s-36-35.12-34.85-73.57C1119.27,162,1113.2,166,1113.2,166Z"/><path class="cls-29" d="M1087.13,200c6.83-2.28,13.66-6.83,13.66-13.66C1096.24,186.29,1089.41,184,1087.13,200Z"/><path class="cls-29" d="M1082.71,222.6c9-3,18-9,18-17.95C1094.68,204.65,1085.7,201.66,1082.71,222.6Z"/><path class="cls-29" d="M1078.18,254.47c11.23-3.75,22.46-11.24,22.46-22.47C1093.15,232,1081.92,228.26,1078.18,254.47Z"/><path class="cls-29" d="M1078.18,288.61c11.23-3.74,22.46-11.23,22.46-22.47C1093.15,266.14,1081.92,262.4,1078.18,288.61Z"/><path class="cls-29" d="M1078.18,322.76c11.23-3.75,22.46-11.24,22.46-22.47C1093.15,300.29,1081.92,296.55,1078.18,322.76Z"/><path class="cls-29" d="M1080.43,352.35c9-3,18-9,18-18C1092.4,334.4,1083.42,331.41,1080.43,352.35Z"/><path class="cls-29" d="M1080.43,381.94c9-3,18-9,18-17.95C1092.4,364,1083.42,361,1080.43,381.94Z"/><path class="cls-29" d="M1085,413.81c9-3,18-9,18-17.95C1097,395.86,1088,392.87,1085,413.81Z"/><path class="cls-29" d="M1119,200c-6.83-2.28-13.66-6.83-13.66-13.66C1109.91,186.29,1116.74,184,1119,200Z"/><path class="cls-29" d="M1123.44,222.6c-9-3-18-9-18-17.95C1111.47,204.65,1120.45,201.66,1123.44,222.6Z"/><path class="cls-29" d="M1128,254.47c-11.24-3.75-22.47-11.24-22.47-22.47C1113,232,1124.23,228.26,1128,254.47Z"/><path class="cls-29" d="M1128,288.61c-11.24-3.74-22.47-11.23-22.47-22.47C1113,266.14,1124.23,262.4,1128,288.61Z"/><path class="cls-29" d="M1128,322.76c-11.24-3.75-22.47-11.24-22.47-22.47C1113,300.29,1124.23,296.55,1128,322.76Z"/><path class="cls-29" d="M1125.72,352.35c-9-3-18-9-18-18C1113.75,334.4,1122.73,331.41,1125.72,352.35Z"/><path class="cls-29" d="M1125.72,381.94c-9-3-18-9-18-17.95C1113.75,364,1122.73,361,1125.72,381.94Z"/><path class="cls-29" d="M1121.17,413.81c-9-3-18-9-18-17.95C1109.2,395.86,1118.17,392.87,1121.17,413.81Z"/><path class="cls-29" d="M1105.42,430.39c3.19-6.45,4.77-14.51-.08-19.31C1102.14,414.31,1095.71,417.55,1105.42,430.39Z"/><path class="cls-29" d="M1100.79,159s9.11,232.19,4.55,252.67"/><g class="cls-30"><path class="cls-31" d="M1100.27-97.81c-54.58,6.56-201.75,81.55-156.18,203.88,19.08-15.88,32.39-32.38,43.74-57.19-7.07,30.94-5.82,37.21,7.83,72.78,18,0,46.93-37.81,52.33-43.2-9,5.39-30.59,30.58-32.38,46.77,16.19-3.6,23.38-5.4,28.78-10.8-5.4,10.8-3.6,21.59,0,32.39,16.19-7.2,27-25.19,32.38-30.59-5.4,7.2-18,28.79-7.2,55.77,14.4-1.8,30.59-1.8,37.78-16.19,0,5.4,3.6,16.19,12.59,21.59,10.8-9,30.59-34.18,34.18-48.57-3.59,23.38-1.79,43.17,5.4,52.17,7.2-3.6,21.59-12.6,25.19-21.59,0,5.39,1.8,41.37,9,52.17,16.19-9,39.58-25.19,48.57-48.57-1.8,9-1.8,36,7.2,46.77,10.79-3.6,50.37-45,45-66.56,1.8,28.78,1.8,37.78,7.2,45,9-7.19,21.59-23.39,19.79-34.18,3.59,7.2-9,52.17-3.6,66.56,14.39-10.79,43.17-30.58,41.37-45,5.4,14.39,19.79,32.38,16.19,48.57,9-5.4,23-27,26.84-59.34C1420.66,7.16,1279.9-119.4,1100.27-97.81Z"/></g><path class="cls-10" d="M23.19,454s268.58-17.77,288.46-17.73c.26,33-1,319.39-8.5,321.9s-280,47.12-280,47.12Z"/><polygon class="cls-8" points="-348.18 453.94 -348.18 754.19 23.19 805.24 23.19 453.94 -348.18 453.94"/><polygon class="cls-7" points="166.22 197.59 23.19 453.94 -348.18 453.94 -225.22 228.12 166.22 197.59"/><path class="cls-10" d="M166.21,197.59c.76,7.53,153.64,244,146.11,241.47S23.19,454,23.19,454Z"/><path class="cls-8" d="M196,778.21c42.05-3.06,72.57-14.6,87.43-14.43,2.89-42.24-.82-154.4-6.09-170.22-8.71-26.15-37.13-31.24-55.88-28.25-17,2.69-25.11,17.56-28.74,50.2S196,778.21,196,778.21Z"/><path class="cls-7" d="M195.72,773.08c32.37-2.35,55.85-11.23,67.29-11.1,2.23-32.52-.63-118.85-4.68-131-6.71-20.12-28.58-24-43-21.74-13.05,2.08-19.32,13.52-22.11,38.64S195.72,773.08,195.72,773.08Z"/><circle class="cls-8" cx="176.2" cy="362.37" r="51.89"/><circle class="cls-7" cx="177.33" cy="362.38" r="37.29"/><line class="cls-32" x1="176.32" y1="317.42" x2="177.23" y2="399.67"/><line class="cls-32" x1="131.61" y1="362.26" x2="228.09" y2="362.51"/><path class="cls-7" d="M57.35,549.83s82.61,1.22,88.45,0c3.48,7.42,1.92,141,.35,147.58-10.5-2.5-82.92,13.54-88.8,9.82C56.18,690.77,61.2,565.89,57.35,549.83Z"/><path class="cls-23" d="M102.53,550.31c.12,6.35,2.38,137.25,0,152.06"/><path class="cls-23" d="M58.36,628.36c-21.13,0,80.16-1.71,89.5-2.62"/><path class="cls-8" d="M40.78,700.12c-1.63,10.12,2.61,26.13-.42,33.32,10.14.18,118-13.1,124.77-12,4-7.18-2.25-25.75-2.16-30.58C155.2,693.13,54.76,701.82,40.78,700.12Z"/><path class="cls-18" d="M-23.36,213.8c-5.94,20.67,9.24,19.95,17.9,18.74S21.81,221.23,23.19,210"/><path class="cls-18" d="M24.86,211.69C18.92,232.36,30,233,38.69,231.81s23.73-14.33,25.11-25.55"/><path class="cls-18" d="M63.8,206.26c-6.7,20.78,7.31,21.58,16.72,20.27S109.34,213.15,111,201.9"/><path class="cls-18" d="M111,201.9c-8.49,21,5.66,25.47,16.87,23.91s35.3-15.37,37.53-26.71"/><path class="cls-18" d="M-12.08,283.76C-18,304.43-6.91,305.09,1.75,303.88s23.72-14.33,25.1-25.55"/><path class="cls-18" d="M26.85,278.33c-6.7,20.78,7.31,21.59,16.73,20.27s26-14.64,27.58-25.89"/><path class="cls-18" d="M71.16,272.71c-8.49,21,8.53,26.74,19.74,25.17S119,281,121.23,269.7"/><path class="cls-18" d="M-23.56,344c-6.7,20.78,7.61,28.57,17,27.26s25.66-21.63,27.29-32.88"/><path class="cls-18" d="M20.75,338.38c-8.5,21,8.46,34.58,19.67,33s35.53-12,43.44-36.18"/><path class="cls-8" d="M22.06,452.81c-1.83,21.08,23.54,25.42,32.27,25.42s23.54-13.47,23.54-26.87"/><path class="cls-8" d="M77.87,451.36c-1.83,21.08,25.06,24.08,33.79,24.08S135.2,462,135.2,448.57"/><path class="cls-8" d="M136.38,449.05c-1.83,21.09,23.54,25.42,32.27,25.42S192.19,461,192.19,447.6"/><path class="cls-8" d="M252.27,443.69c-1.83,21.09,29.11,24,37.85,24s22.2-15.26,22.2-28.66"/><path class="cls-8" d="M192.27,448.18c-1.83,21.09,29.33,26.48,37.83,24.45,9.1-2.19,21.11-16.09,21.11-29.49"/><path class="cls-18" d="M-16.38,430.73c-8.49,21,4,32.32,15.3,32.41,16.26.13,32-22.6,34.22-33.94"/><path class="cls-13" d="M91,685.89c4.68,3,5.07-3.41,2.92-9.84-2.26-6.76-6.1-11.67-15.47-10.9-4.25.36-10.69,5.53-13,9.93-4.11,8-.56,14.14,4.51,12.4s-1.5-19.19-12.14-19.38S36,673.51,35.74,687.78c-.1,5-2.74,24.36,6,24.37,3.79,0,120.4-9.41,120.4-9.41s11-.82,6.52-12c-4-10.16-16.63-11.69-21.06-6.3s.49,8.65,4,6.86c10.23-5.26,6.69-14.75-2.45-16.85s-20.33,1.22-23.37,5.88c-2.86,4.39,3.31,10.41,8.15,3.87,7.65-10.34-1.52-22.55-11.68-21.88s-19.14,7.83-20.87,16.05,6.69,14.48,11.27,10.88c8.53-6.72-8.29-19.43-14.6-17.64C93.5,672.87,84.55,681.76,91,685.89Z"/><path class="cls-7" d="M1062.72,740.26c1.15-.84,10.66,0,10.66,0l-.39,40.08-10.27-.36Z"/><path class="cls-7" d="M872.25,749.8c-1.15-.83-9,0-9,0l-.35,35.7,9.38.89Z"/><path class="cls-7" d="M1054.41,667.9c.91-1,7.52-.19,7.52-.19l-.61,76.31-10.34.45Z"/><path class="cls-7" d="M890.84,669.06c-1-1-7.94,0-7.94,0l2.65,76.28,10.91.19Z"/><path class="cls-8" d="M1094.73,672.84c1.31,5.6-7.62,18.27-7.74,23.71-16.73,2.23-221.37,8.17-233,1.34-11.7-11.83-9.19-19.86-10.51-23.84C859.66,673.85,1107.7,673,1094.73,672.84Z"/><path class="cls-8" d="M1083.34,699.92c-1.29,6.6-10,17.62-10,21.58-7.73,2.64-204.83,7.92-212.56,0-2.64-5.3-5.46-8.53-5.46-18.65C871.3,707.3,1055.83,704.68,1083.34,699.92Z"/><path class="cls-8" d="M1114.47,754.08c-17.4-.28-256,6-287.88,6,15.62-7.16,32-17.59,37.19-21.56,15.46,2.42,196.82-3,209.87-3.31C1081.33,740.19,1114.47,754.08,1114.47,754.08Z"/></g></svg>